<?xml version="1.0" encoding="UTF-8" standalone="no"?>
<svg
   xmlns:dc="http://purl.org/dc/elements/1.1/"
   xmlns:cc="http://creativecommons.org/ns#"
   xmlns:rdf="http://www.w3.org/1999/02/22-rdf-syntax-ns#"
   xmlns:svg="http://www.w3.org/2000/svg"
   xmlns="http://www.w3.org/2000/svg"
   xmlns:sodipodi="http://sodipodi.sourceforge.net/DTD/sodipodi-0.dtd"
   xmlns:inkscape="http://www.inkscape.org/namespaces/inkscape"
   width="521.92102"
   height="366.54901"
   viewBox="0 0 138.0916 96.982764"
   version="1.1"
   id="svg2164"
   inkscape:export-filename="/home/pcon/devel/community/southeastdreamin/assets/2022/SoutheastDreamin5_pointCloud.png"
   inkscape:export-xdpi="96"
   inkscape:export-ydpi="96"
   sodipodi:docname="SoutheastDreamin5_cloud.svg"
   inkscape:version="1.0.2 (e86c870879, 2021-01-15)">
  <defs
     id="defs2158" />
  <sodipodi:namedview
     id="base"
     pagecolor="#ffffff"
     bordercolor="#666666"
     borderopacity="1.0"
     inkscape:pageopacity="0.0"
     inkscape:pageshadow="2"
     inkscape:zoom="0.7"
     inkscape:cx="330.18141"
     inkscape:cy="608.41218"
     inkscape:document-units="px"
     inkscape:current-layer="layer1"
     inkscape:document-rotation="0"
     showgrid="false"
     units="px"
     inkscape:window-width="2048"
     inkscape:window-height="1113"
     inkscape:window-x="1080"
     inkscape:window-y="0"
     inkscape:window-maximized="1" />
  <metadata
     id="metadata2161">
    <rdf:RDF>
      <cc:Work
         rdf:about="">
        <dc:format>image/svg+xml</dc:format>
        <dc:type
           rdf:resource="http://purl.org/dc/dcmitype/StillImage" />
        <dc:title></dc:title>
      </cc:Work>
    </rdf:RDF>
  </metadata>
  <g
     inkscape:label="Layer 1"
     inkscape:groupmode="layer"
     id="layer1">
    <g
       id="g3449"
       transform="translate(0,-11.729493)">
      <path
         id="path4184-1"
         style="fill:#78b6e6;fill-opacity:1;stroke:none;stroke-width:4.02573;stroke-opacity:1"
         d="m 135.08203,44.332031 c -55.257825,0 -100.064452,46.040678 -100.064452,102.847659 0,13.54881 2.568619,26.44465 7.199219,38.29101 -25.265233,15.27338 -42.21875013,43.45344 -42.21875013,75.76368 0,48.5441 38.28178313,87.95507 85.50195313,87.95507 6.111118,0 12.087843,-0.71016 17.83594,-1.96289 14.99815,37.35051 50.78916,63.6543 92.53711,63.6543 36.3013,0 68.12788,-19.83922 85.66406,-49.58203 12.14929,5.39149 25.52766,8.42773 39.60156,8.42773 34.43188,0 64.79984,-17.86085 82.80078,-45.08203 2.3009,0.14665 4.61805,0.16406 6.95508,0.16406 61.28572,0 111.02735,-51.05252 111.02735,-114.05664 0,-63.004 -49.74163,-114.054684 -111.02735,-114.054684 -16.47318,0 -32.08977,3.688634 -46.14648,10.308594 -17.53656,-29.74269 -49.3625,-49.582032 -85.66407,-49.582032 -25.27782,0 -48.33478,9.632692 -65.94726,25.527344 C 194.8011,59.416054 166.69415,44.332031 135.08203,44.332031 Z m 178.9082,67.470699 c 1.71802,0 2.90067,0.32059 3.54493,0.96485 0.85901,0.64425 1.28711,1.93246 1.28711,3.86523 0.21475,3.00653 0.32226,7.62375 0.32226,13.85157 0.21475,6.01306 0.32227,12.77859 0.32227,20.29492 0,1.07376 -0.21503,1.71884 -0.64453,1.93359 -0.42951,0.21475 -0.85761,0.21475 -1.28711,0 -3.65079,-1.71802 -6.87229,-3.22125 -9.66407,-4.50977 -2.79178,-1.28851 -6.01327,-2.25613 -9.66406,-2.90039 -3.43603,-0.859 -7.6232,-1.39462 -12.5625,-1.60937 -4.9393,-0.42951 -11.27478,-0.64453 -19.00586,-0.64453 h -25.44922 c -1.93277,0 -3.00595,0.96567 -3.2207,2.89844 l -7.08789,38.01171 c -0.21475,1.07377 -0.10724,1.60938 0.32226,1.60938 0.64426,0 1.18183,-0.10556 1.61133,-0.32031 6.44257,-1.93277 13.52869,-2.90039 21.25977,-2.90039 11.16712,0 21.58419,2.14831 31.24805,6.44336 9.8786,4.29504 18.46795,10.20046 25.76953,17.71679 7.30157,7.30158 12.99197,15.78342 17.07226,25.44727 4.0803,9.66385 6.1211,19.97341 6.1211,30.92578 0,11.16712 -2.14832,21.68976 -6.44336,31.56836 -4.0803,9.66385 -9.77069,18.14569 -17.07227,25.44726 -7.30158,7.30158 -15.99844,13.09949 -26.0918,17.39454 -9.8786,4.08029 -20.61627,6.12109 -32.21289,6.12109 -7.51632,0 -14.38937,-0.64508 -20.61718,-1.93359 -6.01307,-1.28852 -11.91849,-3.21985 -17.7168,-5.79688 -2.36228,-1.07376 -4.72366,-2.36197 -7.08594,-3.86523 -2.14752,-1.50327 -4.40335,-3.11402 -6.76562,-4.83203 -2.57703,-1.93278 -4.08026,-4.08109 -4.50977,-6.44336 -1.71802,-6.87208 -3.32876,-13.74317 -4.83203,-20.61524 -1.50327,-6.87207 -2.57645,-14.39019 -3.2207,-22.55078 -0.21476,-1.50327 2.7e-4,-2.36142 0.64453,-2.57617 0.85901,-0.42951 1.60965,0.10806 2.2539,1.61133 5.36881,11.59662 12.13434,20.61602 20.29493,27.05859 8.37533,6.44257 18.68295,9.66406 30.92382,9.66406 6.65732,0 12.9928,-1.29016 19.00586,-3.86719 6.01307,-2.57702 11.27341,-6.1191 15.78321,-10.6289 4.50979,-4.72455 8.05383,-10.20187 10.63086,-16.42969 2.79178,-6.44257 4.1875,-13.52868 4.1875,-21.25976 0,-7.51633 -1.39572,-14.38742 -4.1875,-20.61524 -2.57703,-6.44257 -6.33414,-11.91989 -11.27344,-16.42969 -4.72455,-4.50979 -10.52441,-7.94632 -17.39649,-10.30859 -6.65732,-2.57703 -14.06597,-3.86523 -22.22656,-3.86523 -6.65732,0 -13.10031,0.96762 -19.32812,2.90039 -6.01307,1.93277 -11.05838,4.40167 -15.13868,7.4082 -3.00653,2.36227 -5.26235,3.00735 -6.76562,1.93359 -1.50327,-1.07376 -2.03888,-3.00705 -1.60938,-5.79882 l 17.07227,-99.85938 c 0.42951,-1.93277 0.75205,-3.11542 0.9668,-3.54492 0.4295,-0.42951 1.39517,-0.64453 2.89843,-0.64453 7.94584,0.21475 16.2146,0.42978 24.80469,0.64453 h 26.73633 13.85156 10.62891 c 3.43604,-0.21475 6.87256,-0.32227 10.30859,-0.32227 3.65079,-0.21475 8.05298,-0.42782 13.20703,-0.64258 z"
         transform="scale(0.26458334)" />
      <g
         id="g3427"
         transform="translate(-1.8543876,-3.2684731)">
        <path
           d="m 22.856203,59.886047 c 0.653698,0 1.159583,-0.182033 1.5173,-0.545746 0.357012,-0.363361 0.535871,-0.853721 0.535871,-1.471787 0,-0.326672 -0.05433,-0.61736 -0.163689,-0.872418 -0.108656,-0.254 -0.251532,-0.484364 -0.426862,-0.690385 C 24.142786,56.100394 23.939938,55.912364 23.71028,55.743031 23.479563,55.573345 23.243554,55.404012 23.001548,55.23362 22.7225,55.039946 22.43181,54.833924 22.129126,54.61626 21.82609,54.397891 21.55057,54.143538 21.302566,53.85285 21.053858,53.562161 20.85101,53.223143 20.693671,52.835087 c -0.157339,-0.386996 -0.236362,-0.841726 -0.236362,-1.362778 0,-0.508352 0.08784,-0.968727 0.263526,-1.380771 0.175331,-0.412043 0.418042,-0.76341 0.727076,-1.054098 0.309034,-0.291041 0.678393,-0.514702 1.108077,-0.672041 0.430037,-0.157691 0.893236,-0.236361 1.3903,-0.236361 0.484365,0 0.932747,0.06068 1.344439,0.181328 0.411693,0.121355 0.757416,0.266699 1.036111,0.436033 l -0.50906,1.290812 c -0.254,-0.169686 -0.530226,-0.299861 -0.82656,-0.390878 -0.297039,-0.09102 -0.608895,-0.136172 -0.935921,-0.136172 -0.593373,0 -1.069272,0.160514 -1.426636,0.481541 -0.357012,0.321028 -0.535871,0.790222 -0.535871,1.408287 0,0.339019 0.0575,0.636058 0.172509,0.890058 0.115006,0.254352 0.266348,0.484363 0.454379,0.690385 0.187678,0.206022 0.406048,0.394405 0.654404,0.563738 0.248003,0.169686 0.511529,0.345369 0.790224,0.526344 0.278695,0.182033 0.563387,0.381705 0.854076,0.600074 0.29069,0.218016 0.554215,0.469546 0.790577,0.753885 0.236009,0.285397 0.429684,0.618066 0.581379,0.999771 0.151342,0.381705 0.227189,0.832907 0.227189,1.353253 0,0.472722 -0.07267,0.921102 -0.218017,1.34514 -0.145345,0.424391 -0.372534,0.796219 -0.681568,1.117599 -0.309034,0.321027 -0.696385,0.575027 -1.163111,0.76341 -0.466373,0.187325 -1.014591,0.280811 -1.6443,0.280811 -0.581379,0 -1.090439,-0.06597 -1.526473,-0.199672 -0.436034,-0.132997 -0.823738,-0.308681 -1.162758,-0.52705 l 0.508354,-1.307745 c 0.315031,0.193675 0.639235,0.347838 0.972258,0.462844 0.333375,0.115358 0.718257,0.173213 1.154291,0.173213"
           style="fill:#fbc136;fill-opacity:1;fill-rule:nonzero;stroke:none;stroke-width:0.0352778"
           id="path2957" />
        <path
           d="m 37.628803,54.725268 c 0,-0.76341 -0.04833,-1.460145 -0.145345,-2.089852 -0.09701,-0.629708 -0.254353,-1.171927 -0.472371,-1.625951 -0.218017,-0.455083 -0.499534,-0.808918 -0.845257,-1.063271 -0.345017,-0.254352 -0.766235,-0.381705 -1.262594,-0.381705 -0.497065,0 -0.917577,0.127353 -1.262947,0.381705 -0.345017,0.254353 -0.626888,0.608188 -0.844905,1.063271 -0.218017,0.454024 -0.378884,0.996243 -0.481542,1.625951 -0.103364,0.629707 -0.154517,1.326442 -0.154517,2.089852 0,0.76341 0.05115,1.459793 0.154517,2.089853 0.102658,0.629707 0.263525,1.169104 0.481542,1.617131 0.218017,0.44838 0.499888,0.796218 0.844905,1.044221 0.34537,0.249061 0.765882,0.372886 1.262947,0.372886 0.496359,0 0.917577,-0.123825 1.262594,-0.372886 0.345723,-0.248003 0.62724,-0.595841 0.845257,-1.044221 0.218018,-0.448027 0.375357,-0.987424 0.472371,-1.617131 0.09701,-0.63006 0.145345,-1.326443 0.145345,-2.089853 z m 1.744489,0 c 0,0.981074 -0.08819,1.874659 -0.263525,2.680049 -0.175684,0.805744 -0.448029,1.496129 -0.817388,2.071156 -0.369712,0.576085 -0.836085,1.02129 -1.399472,1.33632 -0.563388,0.314678 -1.226611,0.471664 -1.989671,0.471664 -0.763413,0 -1.426636,-0.156986 -1.989671,-0.471664 -0.563387,-0.31503 -1.02976,-0.760235 -1.399119,-1.33632 -0.369712,-0.575027 -0.645232,-1.265412 -0.826913,-2.071156 -0.182034,-0.80539 -0.272345,-1.698975 -0.272345,-2.680049 0,-0.981426 0.09031,-1.877833 0.272345,-2.689221 0.181681,-0.811741 0.457201,-1.505654 0.826913,-2.081033 0.369359,-0.57538 0.835732,-1.023055 1.399119,-1.344082 0.563035,-0.321027 1.226258,-0.481894 1.989671,-0.481894 0.76306,0 1.426283,0.160867 1.989671,0.481894 0.563387,0.321027 1.02976,0.768702 1.399472,1.344082 0.369359,0.575379 0.641704,1.269292 0.817388,2.081033 0.175331,0.811388 0.263525,1.707795 0.263525,2.689221"
           style="fill:#fbc136;fill-opacity:1;fill-rule:nonzero;stroke:none;stroke-width:0.0352778"
           id="path2959" />
        <path
           d="m 47.514009,61.284457 c -1.175105,0 -2.056699,-0.332669 -2.644075,-0.999066 -0.587729,-0.666043 -0.881241,-1.719789 -0.881241,-3.16159 V 48.42008 h 1.635482 v 8.558024 c 0,0.957085 0.138994,1.675339 0.417689,2.153353 0.279048,0.478719 0.781405,0.717902 1.508481,0.717902 0.751066,0 1.262947,-0.245181 1.535292,-0.735894 0.272698,-0.49036 0.409223,-1.202265 0.409223,-2.135361 V 48.42008 h 1.635129 v 8.703721 c 0,1.417107 -0.302684,2.465208 -0.908405,3.143246 -0.606074,0.678743 -1.508128,1.01741 -2.707575,1.01741"
           style="fill:#fbc136;fill-opacity:1;fill-rule:nonzero;stroke:none;stroke-width:0.0352778"
           id="path2961" />
        <path
           d="m 62.214289,48.42008 v 1.398762 H 59.41605 V 61.012465 H 57.780569 V 49.818842 H 54.981977 V 48.42008 h 7.232312"
           style="fill:#fbc136;fill-opacity:1;fill-rule:nonzero;stroke:none;stroke-width:0.0352778"
           id="path2963" />
        <path
           d="m 71.954151,48.42008 h 1.635128 V 61.012465 H 71.954151 V 55.161301 H 67.81112 v 5.851164 H 66.175992 V 48.42008 h 1.635128 v 5.323762 h 4.143031 V 48.42008"
           style="fill:#fbc136;fill-opacity:1;fill-rule:nonzero;stroke:none;stroke-width:0.0352778"
           id="path2965" />
        <path
           d="M 78.822395,61.012465 V 48.42008 h 5.651159 v 1.398762 h -4.015678 v 3.906655 h 3.634325 v 1.362779 h -3.634325 v 4.524722 h 4.306368 v 1.399467 h -5.941849"
           style="fill:#fbc136;fill-opacity:1;fill-rule:nonzero;stroke:none;stroke-width:0.0352778"
           id="path2967" />
        <path
           d="m 92.49609,50.273571 c -0.294923,1.008591 -0.582085,2.021414 -0.861485,3.037766 -0.279754,1.016351 -0.54716,2.057397 -0.802571,3.122079 h 3.298479 C 93.888859,55.367323 93.629214,54.326277 93.351578,53.308515 93.073941,52.291458 92.788191,51.27934 92.49609,50.273571 Z m 0.889707,-1.853491 c 0.29069,0.906637 0.577851,1.823858 0.862191,2.750604 0.284692,0.926746 0.563034,1.899353 0.835027,2.91641 0.272697,1.017763 0.54469,2.096203 0.817035,3.234968 0.272345,1.139118 0.545748,2.3689 0.820915,3.690403 H 95.085484 C 94.990939,60.466719 94.89322,59.927322 94.79162,59.394629 94.690019,58.861935 94.585244,58.328888 94.477647,57.796195 h -3.972639 c -0.121709,0.532693 -0.231423,1.06574 -0.328437,1.598434 -0.09701,0.533399 -0.193322,1.07209 -0.287867,1.617836 h -1.581153 c 0.267406,-1.320092 0.540809,-2.549521 0.820563,-3.687581 0.2794,-1.139118 0.555626,-2.2165 0.829735,-3.233557 0.27305,-1.017762 0.552804,-1.989311 0.838554,-2.916057 0.285398,-0.926746 0.575029,-1.845025 0.868188,-2.75519 h 1.721206"
           style="fill:#fbc136;fill-opacity:1;fill-rule:nonzero;stroke:none;stroke-width:0.0352778"
           id="path2969" />
        <path
           d="m 102.53546,59.886047 c 0.65405,0 1.15958,-0.182033 1.5173,-0.545746 0.35737,-0.363361 0.53587,-0.853721 0.53587,-1.471787 0,-0.326672 -0.0543,-0.61736 -0.16334,-0.872418 -0.109,-0.254 -0.25153,-0.484364 -0.42686,-0.690385 -0.17603,-0.205317 -0.37923,-0.393347 -0.60889,-0.56268 -0.23037,-0.169686 -0.46638,-0.339019 -0.70873,-0.509411 -0.27905,-0.193674 -0.56974,-0.399696 -0.87207,-0.61736 -0.30339,-0.218369 -0.57891,-0.472722 -0.82692,-0.76341 -0.24835,-0.290689 -0.4512,-0.629707 -0.60889,-1.017763 -0.15734,-0.386996 -0.23636,-0.841726 -0.23636,-1.362778 0,-0.508352 0.0878,-0.968727 0.26352,-1.380771 0.17533,-0.412043 0.41804,-0.76341 0.72708,-1.054098 0.30903,-0.291041 0.67839,-0.514702 1.10843,-0.672041 0.42968,-0.157691 0.89323,-0.236361 1.38995,-0.236361 0.48436,0 0.9331,0.06068 1.34479,0.181328 0.41169,0.121355 0.75706,0.266699 1.03576,0.436033 l -0.50871,1.290812 c -0.25435,-0.169686 -0.53023,-0.299861 -0.82691,-0.390878 -0.29704,-0.09102 -0.6089,-0.136172 -0.93557,-0.136172 -0.59373,0 -1.06963,0.160514 -1.42664,0.481541 -0.35736,0.321028 -0.53622,0.790222 -0.53622,1.408287 0,0.339019 0.0575,0.636058 0.17251,0.890058 0.11536,0.254352 0.26634,0.484363 0.45438,0.690385 0.18803,0.206022 0.40604,0.394405 0.6544,0.563738 0.248,0.169686 0.51153,0.345369 0.79022,0.526344 0.2787,0.182033 0.56339,0.381705 0.85408,0.600074 0.29069,0.218016 0.55421,0.469546 0.79058,0.753885 0.23601,0.285397 0.42968,0.618066 0.58173,0.999771 0.15099,0.381705 0.22683,0.832907 0.22683,1.353253 0,0.472722 -0.0727,0.921102 -0.21801,1.34514 -0.14535,0.424391 -0.37254,0.796219 -0.68157,1.117599 -0.30903,0.321027 -0.69639,0.575027 -1.16276,0.76341 -0.46672,0.187325 -1.01459,0.280811 -1.64465,0.280811 -0.58138,0 -1.09009,-0.06597 -1.52647,-0.199672 -0.43604,-0.132997 -0.82374,-0.308681 -1.162762,-0.52705 l 0.508702,-1.307745 c 0.31468,0.193675 0.63889,0.347838 0.97226,0.462844 0.33302,0.115358 0.71791,0.173213 1.15394,0.173213"
           style="fill:#fbc136;fill-opacity:1;fill-rule:nonzero;stroke:none;stroke-width:0.0352778"
           id="path2971" />
        <path
           d="m 116.38166,48.42008 v 1.398762 h -2.79824 v 11.193623 h -1.63548 V 49.818842 h -2.79859 V 48.42008 h 7.23231"
           style="fill:#fbc136;fill-opacity:1;fill-rule:nonzero;stroke:none;stroke-width:0.0352778"
           id="path2973" />
        <path
           d="m 24.055297,76.378386 c 0.132998,0.01235 0.287867,0.02117 0.463551,0.02752 0.175331,0.006 0.384529,0.0088 0.626535,0.0088 1.417816,0 2.468391,-0.35701 3.153134,-1.07209 0.684037,-0.714374 1.026585,-1.701798 1.026585,-2.961213 0,-1.321151 -0.327378,-2.320216 -0.981077,-2.998607 -0.654404,-0.678038 -1.690514,-1.017762 -3.107626,-1.017762 -0.194028,0 -0.3937,0.0035 -0.59937,0.0088 -0.206376,0.0063 -0.400051,0.02152 -0.581732,0.04551 z m 8.195397,-3.996967 c 0,1.089729 -0.170039,2.040817 -0.509059,2.852558 -0.339373,0.811387 -0.820916,1.484134 -1.444275,2.016475 -0.624418,0.533399 -1.384303,0.933096 -2.280713,1.199795 -0.89641,0.265994 -1.902182,0.399697 -3.016256,0.399697 -0.508707,0 -1.102786,-0.02152 -1.780826,-0.0635 -0.678746,-0.04269 -1.344792,-0.130175 -1.998843,-0.263877 V 66.257205 c 0.654051,-0.121355 1.335266,-0.202494 2.043998,-0.24518 0.708732,-0.04198 1.317275,-0.0635 1.826335,-0.0635 1.078091,0 2.056346,0.121356 2.934764,0.363008 0.878066,0.242711 1.632306,0.624416 2.262016,1.145468 0.629709,0.520699 1.114427,1.187096 1.4538,1.998836 0.33902,0.811388 0.509059,1.786464 0.509059,2.925582"
           style="fill:#fbc136;fill-opacity:1;fill-rule:nonzero;stroke:none;stroke-width:0.0352778"
           id="path2975" />
        <path
           d="m 40.28205,68.36505 c -0.206376,0 -0.390526,0.006 -0.554215,0.0187 -0.16369,0.01164 -0.317854,0.02399 -0.463198,0.03563 v 3.416296 h 0.799396 c 1.065743,0 1.829156,-0.132997 2.289179,-0.399697 0.460376,-0.265994 0.690741,-0.720724 0.690741,-1.362779 0,-0.61736 -0.23354,-1.05692 -0.69956,-1.317623 C 41.87802,68.495225 41.190807,68.36505 40.28205,68.36505 Z m -0.16369,-2.416525 c 1.889835,0 3.337285,0.336197 4.343057,1.008238 1.005418,0.672393 1.508128,1.717672 1.508128,3.134779 0,0.88406 -0.203201,1.601962 -0.608543,2.153353 -0.406401,0.551038 -0.990602,0.983895 -1.753662,1.298573 0.254353,0.315735 0.520701,0.676274 0.799749,1.081968 0.278342,0.405694 0.553862,0.829379 0.82656,1.271762 0.272698,0.442383 0.53587,0.902757 0.790576,1.38077 0.254001,0.479072 0.490362,0.948266 0.70838,1.40864 h -3.168657 c -0.23107,-0.412044 -0.465315,-0.829732 -0.702382,-1.254123 -0.237067,-0.423686 -0.480131,-0.83573 -0.729546,-1.235426 -0.249414,-0.399697 -0.495654,-0.77858 -0.738718,-1.136296 -0.243417,-0.356658 -0.486482,-0.681213 -0.729899,-0.971549 h -1.398766 v 4.597394 H 36.429708 V 66.275197 c 0.617716,-0.12065 1.256598,-0.205316 1.916999,-0.254352 0.660048,-0.04798 1.250952,-0.07232 1.771653,-0.07232"
           style="fill:#fbc136;fill-opacity:1;fill-rule:nonzero;stroke:none;stroke-width:0.0352778"
           id="path2977" />
        <path
           d="M 50.366929,78.686608 V 66.09387 h 8.504078 v 2.379835 h -5.669503 v 2.471558 h 5.033444 v 2.326213 h -5.033444 v 3.034591 h 6.087193 v 2.380541 h -8.921768"
           style="fill:#fbc136;fill-opacity:1;fill-rule:nonzero;stroke:none;stroke-width:0.0352778"
           id="path2979" />
        <path
           d="m 68.237982,68.946427 c -0.0628,0.182738 -0.155575,0.432152 -0.277637,0.746124 -0.121356,0.31503 -0.259997,0.678743 -0.415573,1.091493 -0.155928,0.412749 -0.329848,0.866774 -0.522112,1.363131 -0.192264,0.496005 -0.387704,1.015999 -0.585965,1.560334 h 3.601163 C 69.844888,73.16141 69.658621,72.639652 69.477646,72.142236 69.297023,71.64482 69.125573,71.189385 68.962942,70.776635 68.800311,70.364592 68.657788,70.000878 68.535021,69.686554 68.412607,69.371523 68.313477,69.125638 68.237982,68.946427 Z m 3.406076,9.740181 C 71.503653,78.248811 71.353369,77.79902 71.191796,77.33794 71.030577,76.877213 70.86971,76.417544 70.709901,75.960698 h -4.917732 c -0.159104,0.459669 -0.318559,0.91969 -0.478368,1.381476 -0.159809,0.461785 -0.308681,0.90946 -0.446265,1.344434 H 61.9236 c 0.474134,-1.356781 0.923574,-2.610905 1.348672,-3.761312 0.425451,-1.150759 0.841376,-2.235197 1.248483,-3.252959 0.407459,-1.017763 0.807863,-1.983667 1.202975,-2.898066 0.395111,-0.915104 0.805393,-1.807983 1.230844,-2.680401 h 2.686761 c 0.413809,0.872418 0.821268,1.765297 1.223436,2.680401 0.401109,0.914399 0.806099,1.880303 1.21391,2.898066 0.40746,1.017762 0.824444,2.1022 1.250247,3.252959 0.425804,1.150407 0.876302,2.404531 1.350789,3.761312 h -3.035659"
           style="fill:#fbc136;fill-opacity:1;fill-rule:nonzero;stroke:none;stroke-width:0.0352778"
           id="path2981" />
        <path
           d="m 81.457651,66.09387 c 0.21837,0.399696 0.470253,0.893232 0.756004,1.480959 0.285398,0.587727 0.58279,1.223431 0.89253,1.907819 0.310092,0.684741 0.616656,1.384298 0.920046,2.098672 0.303742,0.71508 0.58914,1.387121 0.856546,2.016828 0.267406,-0.629707 0.552451,-1.301748 0.856546,-2.016828 0.30339,-0.714374 0.609954,-1.413931 0.919694,-2.098672 0.309739,-0.684388 0.607484,-1.320092 0.892882,-1.907819 0.285398,-0.587727 0.537635,-1.081263 0.756005,-1.480959 h 2.580574 c 0.120651,0.835729 0.233187,1.771647 0.336198,2.807048 0.102659,1.035755 0.193323,2.114195 0.272345,3.234263 0.07902,1.121126 0.151342,2.244369 0.218017,3.371492 0.06667,1.126418 0.124178,2.186161 0.172862,3.179935 h -2.762256 c -0.03598,-1.223784 -0.08467,-2.556224 -0.145345,-3.997672 -0.06068,-1.441448 -0.151342,-2.895244 -0.272345,-4.361739 -0.219075,0.509411 -0.462139,1.07209 -0.729546,1.690156 -0.267053,0.618066 -0.531284,1.235426 -0.792693,1.853492 -0.261409,0.618066 -0.513293,1.208615 -0.756357,1.771648 -0.243064,0.563385 -0.449793,1.045279 -0.619832,1.444623 h -1.980498 c -0.170745,-0.399344 -0.37712,-0.881238 -0.619832,-1.444623 -0.243417,-0.563033 -0.495301,-1.153582 -0.757063,-1.771648 -0.261056,-0.618066 -0.525287,-1.235426 -0.792693,-1.853492 -0.267053,-0.618066 -0.510118,-1.180745 -0.72884,-1.690156 -0.121356,1.466495 -0.212373,2.920291 -0.272698,4.361739 -0.06033,1.441448 -0.109009,2.773888 -0.145345,3.997672 h -2.761903 c 0.04833,-0.993774 0.105834,-2.053517 0.172862,-3.179935 0.06632,-1.127123 0.138994,-2.250366 0.218017,-3.371492 0.07832,-1.120068 0.169333,-2.198508 0.272345,-3.234263 0.102658,-1.035401 0.215195,-1.971319 0.336198,-2.807048 h 2.707575"
           style="fill:#fbc136;fill-opacity:1;fill-rule:nonzero;stroke:none;stroke-width:0.0352778"
           id="path2983" />
        <path
           d="m 96.230603,66.09387 h 2.834575 V 78.686608 H 96.230603 V 66.09387"
           style="fill:#fbc136;fill-opacity:1;fill-rule:nonzero;stroke:none;stroke-width:0.0352778"
           id="path2985" />
        <path
           d="m 112.23899,78.686608 c -0.81175,-1.441448 -1.68981,-2.864904 -2.63491,-4.270722 -0.94474,-1.404759 -1.95051,-2.731202 -3.01661,-3.978975 v 8.249697 h -2.79788 V 66.09387 h 2.30752 c 0.40005,0.399696 0.84208,0.890409 1.3268,1.471786 0.48437,0.58173 0.9779,1.202265 1.48061,1.862312 0.50271,0.660399 1.00225,1.34514 1.49931,2.053516 0.49636,0.709083 0.96273,1.390296 1.39912,2.044345 V 66.09387 h 2.81659 v 12.592738 h -2.38055"
           style="fill:#fbc136;fill-opacity:1;fill-rule:nonzero;stroke:none;stroke-width:0.0352778"
           id="path2987" />
        <path
           d="m 121.50648,64.749082 c 0.024,0.169334 0.0423,0.345017 0.0543,0.52705 0.012,0.182033 0.0183,0.31503 0.0183,0.399696 0,0.811741 -0.1457,1.58397 -0.43639,2.317042 -0.29069,0.733071 -0.64805,1.353253 -1.07209,1.862311 l -1.90783,-0.436033 c 0.23001,-0.520699 0.41487,-1.108426 0.55422,-1.762475 0.13935,-0.654402 0.20884,-1.278112 0.20884,-1.872189 0,-0.02399 0,-0.07514 0,-0.154164 0,-0.07867 -0.003,-0.169686 -0.009,-0.272344 -0.006,-0.103364 -0.012,-0.209197 -0.0183,-0.318205 -0.006,-0.109008 -0.0152,-0.206022 -0.0272,-0.290689 h 2.63491"
           style="fill:#fbc136;fill-opacity:1;fill-rule:nonzero;stroke:none;stroke-width:0.0352778"
           id="path2989" />
      </g>
    </g>
  </g>
</svg>
