<?xml version="1.0" encoding="UTF-8" standalone="no"?>
<svg
   xmlns:dc="http://purl.org/dc/elements/1.1/"
   xmlns:cc="http://creativecommons.org/ns#"
   xmlns:rdf="http://www.w3.org/1999/02/22-rdf-syntax-ns#"
   xmlns:svg="http://www.w3.org/2000/svg"
   xmlns="http://www.w3.org/2000/svg"
   xmlns:sodipodi="http://sodipodi.sourceforge.net/DTD/sodipodi-0.dtd"
   xmlns:inkscape="http://www.inkscape.org/namespaces/inkscape"
   width="750"
   height="475"
   viewBox="0 0 198.4375 125.67709"
   version="1.1"
   id="svg8"
   inkscape:export-filename="/tmp/cookielogo.png"
   inkscape:export-xdpi="96"
   inkscape:export-ydpi="96"
   inkscape:version="1.0.2 (e86c870879, 2021-01-15)"
   sodipodi:docname="SoutheastDreamin5.svg">
  <defs
     id="defs2" />
  <sodipodi:namedview
     id="base"
     pagecolor="#ffffff"
     bordercolor="#666666"
     borderopacity="1.0"
     inkscape:pageopacity="0.0"
     inkscape:pageshadow="2"
     inkscape:zoom="0.35"
     inkscape:cx="400"
     inkscape:cy="560"
     inkscape:document-units="px"
     inkscape:current-layer="layer1"
     inkscape:document-rotation="0"
     showgrid="false"
     inkscape:window-width="2048"
     inkscape:window-height="1113"
     inkscape:window-x="1080"
     inkscape:window-y="0"
     inkscape:window-maximized="1"
     units="px" />
  <metadata
     id="metadata5">
    <rdf:RDF>
      <cc:Work
         rdf:about="">
        <dc:format>image/svg+xml</dc:format>
        <dc:type
           rdf:resource="http://purl.org/dc/dcmitype/StillImage" />
        <dc:title></dc:title>
      </cc:Work>
    </rdf:RDF>
  </metadata>
  <g
     inkscape:label="Layer 1"
     inkscape:groupmode="layer"
     id="layer1">
    <g
       id="g1294"
       transform="matrix(1.0310299,0,0,1.0310299,-9.0394074,-91.512873)"
       style="stroke-width:0.969904">
      <text
         xml:space="preserve"
         style="font-style:normal;font-variant:normal;font-weight:normal;font-stretch:normal;font-size:168.509px;line-height:1.25;font-family:'Coinage Caps Kruger Gray';-inkscape-font-specification:'Coinage Caps Kruger Gray';letter-spacing:0px;word-spacing:0px;fill:#78b6e6;fill-opacity:1;stroke:none;stroke-width:0.25662"
         x="58.259834"
         y="207.25188"
         id="text1179"><tspan
           sodipodi:role="line"
           id="tspan1177"
           x="58.259834"
           y="207.25188"
           style="fill:#78b6e6;fill-opacity:1;stroke-width:0.25662">5</tspan></text>
      <path
         d="m 13.770459,142.86326 c 1.24227,0 2.20238,-0.34522 2.881239,-1.03519 0.678179,-0.6902 1.017949,-1.62173 1.017949,-2.79482 0,-0.62102 -0.103655,-1.17332 -0.310511,-1.65644 -0.207082,-0.48311 -0.4779,-0.91951 -0.810866,-1.31099 -0.333872,-0.39103 -0.719232,-0.74736 -1.155852,-1.06966 -0.437301,-0.32186 -0.885942,-0.64371 -1.345924,-0.96624 -0.529388,-0.36767 -1.08123,-0.75892 -1.655981,-1.17286 -0.575431,-0.41439 -1.098922,-0.89729 -1.570018,-1.44935 -0.471776,-0.55207 -0.8573628,-1.196 -1.1558524,-1.93247 -0.2991699,-0.73579 -0.448641,-1.59815 -0.448641,-2.58774 0,-0.96624 0.1667097,-1.83993 0.5001284,-2.62222 0.333192,-0.78183 0.793855,-1.44912 1.380173,-2.00142 0.586772,-0.55184 1.288086,-0.97735 2.105076,-1.27674 0.816083,-0.29849 1.6959,-0.44842 2.639453,-0.44842 0.919738,0 1.770977,0.11545 2.553264,0.34521 0.781833,0.23 1.437331,0.50626 1.966718,0.82811 l -0.966008,2.44961 c -0.483117,-0.32163 -1.006607,-0.56908 -1.570017,-0.74169 -0.563864,-0.17261 -1.155853,-0.25902 -1.776874,-0.25902 -1.127274,0 -2.030453,0.30529 -2.708632,0.91452 -0.678859,0.60968 -1.017949,1.50106 -1.017949,2.67415 0,0.64416 0.108872,1.20757 0.327749,1.69069 0.218423,0.48311 0.505799,0.92042 0.862806,1.31122 0.356328,0.39148 0.770266,0.74781 1.242043,1.06966 0.471323,0.32231 0.971678,0.65572 1.501066,1.00048 0.528934,0.34499 1.069435,0.72468 1.621505,1.13885 0.552296,0.41393 1.052651,0.89161 1.501065,1.43188 0.448642,0.54073 0.81631,1.17309 1.104139,1.89754 0.287375,0.72491 0.431403,1.58204 0.431403,2.57073 0,0.89706 -0.13813,1.7483 -0.413938,2.55326 -0.276262,0.80565 -0.707665,1.51286 -1.29421,2.12209 -0.586319,0.60968 -1.323016,1.0928 -2.208277,1.44913 -0.885715,0.35632 -1.926799,0.53505 -3.122571,0.53505 -1.104138,0 -2.070146,-0.12679 -2.898477,-0.37969 C 10.147533,144.88759 9.41129,144.55394 8.7673599,144.14 l 0.966235,-2.48454 c 0.5976591,0.36835 1.2130091,0.66162 1.8458251,0.87982 0.632362,0.21888 1.362935,0.32798 2.191039,0.32798"
         style="fill:#fbc136;fill-opacity:1;fill-rule:nonzero;stroke:none;stroke-width:0.0342161"
         id="path1087" />
      <path
         d="m 41.822336,133.06391 c 0,-1.44912 -0.09209,-2.77168 -0.276035,-3.96814 -0.184401,-1.19577 -0.48289,-2.22551 -0.897283,-3.08809 -0.413938,-0.86258 -0.948542,-1.53532 -1.604266,-2.01843 -0.655498,-0.48312 -1.455249,-0.72468 -2.398122,-0.72468 -0.943326,0 -1.742398,0.24156 -2.397895,0.72468 -0.655724,0.48311 -1.190328,1.15585 -1.60472,2.01843 -0.413939,0.86258 -0.719006,1.89232 -0.914294,3.08809 -0.195515,1.19646 -0.293273,2.51902 -0.293273,3.96814 0,1.44913 0.09776,2.77214 0.293273,3.96814 0.195288,1.19623 0.500355,2.22007 0.914294,3.07086 0.414392,0.85124 0.948996,1.51286 1.60472,1.98396 0.655497,0.47177 1.454569,0.70721 2.397895,0.70721 0.942873,0 1.742624,-0.23544 2.398122,-0.70721 0.655724,-0.4711 1.190328,-1.13272 1.604266,-1.98396 0.414393,-0.85079 0.712882,-1.87463 0.897283,-3.07086 0.183948,-1.196 0.276035,-2.51901 0.276035,-3.96814 z m 3.312415,0 c 0,1.86307 -0.167163,3.55987 -0.500128,5.08929 -0.333873,1.5301 -0.851466,2.84132 -1.55278,3.93367 -0.701994,1.09279 -1.587256,1.93814 -2.656918,2.53602 -1.069663,0.59789 -2.328943,0.89728 -3.778295,0.89728 -1.449125,0 -2.708632,-0.29939 -3.778068,-0.89728 -1.069663,-0.59788 -1.955378,-1.44323 -2.656919,-2.53602 -0.701994,-1.09235 -1.22503,-2.40357 -1.570017,-3.93367 -0.345213,-1.52942 -0.517593,-3.22622 -0.517593,-5.08929 0,-1.86329 0.17238,-3.56531 0.517593,-5.10675 0.344987,-1.54076 0.868023,-2.85788 1.570017,-3.95067 0.701541,-1.09235 1.587256,-1.94359 2.656919,-2.5535 1.069436,-0.609 2.328943,-0.91429 3.778068,-0.91429 1.449352,0 2.708632,0.30529 3.778295,0.91429 1.069662,0.60991 1.954924,1.46115 2.656918,2.5535 0.701314,1.09279 1.218907,2.40991 1.55278,3.95067 0.332965,1.54144 0.500128,3.24346 0.500128,5.10675"
         style="fill:#fbc136;fill-opacity:1;fill-rule:nonzero;stroke:none;stroke-width:0.0342161"
         id="path1089" />
      <path
         d="m 60.592463,145.52017 c -2.231412,0 -3.904858,-0.63258 -5.020337,-1.89799 -1.11616,-1.26472 -1.673446,-3.26592 -1.673446,-6.00358 v -16.52783 h 3.105333 v 16.25179 c 0,1.81748 0.26424,3.18019 0.793628,4.08858 0.528934,0.90908 1.483828,1.36294 2.864001,1.36294 1.42599,0 2.397895,-0.46588 2.915488,-1.39741 0.51782,-0.93176 0.77639,-2.28268 0.77639,-4.05411 v -16.25179 h 3.10556 v 16.52783 c 0,2.69117 -0.575431,4.68102 -1.725387,5.96911 -1.150409,1.28853 -2.863774,1.93246 -5.14123,1.93246"
         style="fill:#fbc136;fill-opacity:1;fill-rule:nonzero;stroke:none;stroke-width:0.0342161"
         id="path1091" />
      <path
         d="m 88.506434,121.09077 v 2.65692 h -5.313606 v 21.25466 h -3.105561 v -21.25466 h -5.313383 v -2.65692 h 13.73255"
         style="fill:#fbc136;fill-opacity:1;fill-rule:nonzero;stroke:none;stroke-width:0.0342161"
         id="path1093" />
      <path
         d="m 107.00075,121.09077 h 3.10557 v 23.91158 h -3.10557 v -11.11033 h -7.866866 v 11.11033 h -3.105332 v -23.91158 h 3.105332 v 10.10985 h 7.866866 v -10.10985"
         style="fill:#fbc136;fill-opacity:1;fill-rule:nonzero;stroke:none;stroke-width:0.0342161"
         id="path1095" />
      <path
         d="m 120.04288,145.00235 v -23.91158 h 10.7311 v 2.65692 h -7.62554 v 7.41868 h 6.90087 v 2.58774 h -6.90087 v 8.59133 h 8.17738 v 2.65691 h -11.28294"
         style="fill:#fbc136;fill-opacity:1;fill-rule:nonzero;stroke:none;stroke-width:0.0342161"
         id="path1097" />
      <path
         d="m 146.00737,124.61027 c -0.55955,1.91591 -1.10527,3.83863 -1.63579,5.76883 -0.53098,1.92997 -1.03882,3.90644 -1.52352,5.92805 h 6.26329 c -0.45908,-2.0232 -0.95241,-4.0008 -1.47952,-5.93259 -0.52735,-1.93179 -1.06921,-3.85292 -1.62446,-5.76429 z m 1.68956,-3.5195 c 0.55161,1.72244 1.0971,3.46393 1.63738,5.22379 0.54027,1.75964 1.06875,3.60614 1.58566,5.53816 0.51692,1.93247 1.03405,3.98016 1.55097,6.14262 0.51714,2.16246 1.03677,4.49798 1.55867,7.00701 h -3.10533 c -0.17895,-1.03609 -0.36517,-2.05994 -0.55796,-3.07199 -0.19303,-1.01137 -0.39194,-2.02319 -0.59585,-3.03502 h -7.54411 c -0.23068,1.01183 -0.43866,2.02365 -0.62306,3.03548 -0.18441,1.01205 -0.36722,2.03589 -0.54732,3.07153 h -3.00167 c 0.50761,-2.50631 1.0268,-4.84024 1.55799,-7.00225 0.53053,-2.16178 1.05561,-4.20834 1.57524,-6.14012 0.51918,-1.93179 1.05016,-3.77716 1.59247,-5.5368 0.54254,-1.75918 1.09189,-3.50339 1.64828,-5.23241 h 3.26864"
         style="fill:#fbc136;fill-opacity:1;fill-rule:nonzero;stroke:none;stroke-width:0.0342161"
         id="path1099" />
      <path
         d="m 165.07145,142.86326 c 1.24069,0 2.20238,-0.34522 2.88056,-1.03519 0.67818,-0.6902 1.0184,-1.62173 1.0184,-2.79482 0,-0.62102 -0.10433,-1.17332 -0.31073,-1.65644 -0.20867,-0.48311 -0.47859,-0.91951 -0.812,-1.31099 -0.33342,-0.39103 -0.71901,-0.74736 -1.1545,-1.06966 -0.43775,-0.32186 -0.88684,-0.64371 -1.34728,-0.96624 -0.52848,-0.36767 -1.07964,-0.75892 -1.65576,-1.17286 -0.5761,-0.41439 -1.09778,-0.89729 -1.56956,-1.44935 -0.47178,-0.55207 -0.85736,-1.196 -1.15675,-1.93247 -0.2994,-0.73579 -0.44684,-1.59815 -0.44684,-2.58774 0,-0.96624 0.16558,-1.83993 0.499,-2.62222 0.33342,-0.78183 0.79386,-1.44912 1.38131,-2.00142 0.58518,-0.55184 1.28604,-0.97735 2.10485,-1.27674 0.81426,-0.29849 1.69431,-0.44842 2.63786,-0.44842 0.92087,0 1.77143,0.11545 2.55394,0.34521 0.78252,0.23 1.43801,0.50626 1.9665,0.82811 l -0.96624,2.44961 c -0.48311,-0.32163 -1.00706,-0.56908 -1.56956,-0.74169 -0.56477,-0.17261 -1.15676,-0.25902 -1.77597,-0.25902 -1.12727,0 -2.03227,0.30529 -2.71044,0.91452 -0.67818,0.60968 -1.01614,1.50106 -1.01614,2.67415 0,0.64416 0.10887,1.20757 0.32662,1.69069 0.21774,0.48311 0.5058,0.92042 0.86416,1.31122 0.35611,0.39148 0.76891,0.74781 1.24069,1.06966 0.47177,0.32231 0.97304,0.65572 1.50152,1.00048 0.52848,0.34499 1.0683,0.72468 1.62173,1.13885 0.55116,0.41393 1.05242,0.89161 1.50152,1.43188 0.44682,0.54073 0.81653,1.17309 1.10232,1.89754 0.28806,0.72491 0.43322,1.58204 0.43322,2.57073 0,0.89706 -0.13836,1.7483 -0.41508,2.55326 -0.27671,0.80565 -0.70766,1.51286 -1.29284,2.12209 -0.58746,0.60968 -1.32461,1.0928 -2.20919,1.44913 -0.88685,0.35632 -1.92793,0.53505 -3.12325,0.53505 -1.10459,0 -2.07083,-0.12679 -2.8987,-0.37969 -0.82788,-0.25289 -1.56276,-0.58654 -2.20692,-1.00048 l 0.96624,-2.48454 c 0.59652,0.36835 1.21346,0.66162 1.84628,0.87982 0.63054,0.21888 1.36089,0.32798 2.19103,0.32798"
         style="fill:#fbc136;fill-opacity:1;fill-rule:nonzero;stroke:none;stroke-width:0.0342161"
         id="path1101" />
      <path
         d="m 191.36166,121.09077 v 2.65692 h -5.31203 v 21.25466 h -3.10511 v -21.25466 h -5.31428 v -2.65692 h 13.73142"
         style="fill:#fbc136;fill-opacity:1;fill-rule:nonzero;stroke:none;stroke-width:0.0342161"
         id="path1103" />
      <path
         d="m 16.047915,174.18078 c 0.252899,0.0231 0.546172,0.0407 0.879818,0.0518 0.333192,0.012 0.729893,0.0174 1.190328,0.0174 2.691395,0 4.686918,-0.67841 5.986572,-2.03585 1.299427,-1.35681 1.949707,-3.23149 1.949707,-5.6244 0,-2.50697 -0.621248,-4.40451 -1.86329,-5.69305 -1.242269,-1.28808 -3.209215,-1.93224 -5.900382,-1.93224 -0.368349,0 -0.747811,0.006 -1.138614,0.0172 -0.391484,0.0118 -0.759152,0.0404 -1.104139,0.0862 z m 15.561593,-7.59104 c 0,2.07039 -0.322531,3.8765 -0.966234,5.41726 -0.644383,1.54146 -1.558677,2.81818 -2.743108,3.83026 -1.184885,1.0125 -2.62834,1.77145 -4.330137,2.27718 -1.702705,0.50564 -3.611813,0.75895 -5.727776,0.75895 -0.966234,0 -2.093735,-0.0403 -3.381594,-0.12067 -1.288539,-0.0807 -2.553263,-0.24702 -3.795533,-0.50033 v -23.29033 c 1.24227,-0.22977 2.536253,-0.38514 3.881723,-0.46588 1.345697,-0.0805 2.501777,-0.12067 3.467784,-0.12067 2.047238,0 3.904405,0.22999 5.572634,0.68997 1.667321,0.46044 3.099435,1.18489 4.295661,2.1738 1.195772,0.98915 2.115963,2.25455 2.760346,3.79531 0.643703,1.54144 0.966234,3.39339 0.966234,5.55515"
         style="fill:#fbc136;fill-opacity:1;fill-rule:nonzero;stroke:none;stroke-width:0.0342161"
         id="path1105" />
      <path
         d="m 46.860365,158.96444 c -0.391257,0 -0.741688,0.0118 -1.052198,0.0345 -0.310737,0.0231 -0.60401,0.0463 -0.880045,0.069 v 6.48693 h 1.518077 c 2.024103,0 3.473001,-0.2529 4.347602,-0.75915 0.873921,-0.5058 1.311222,-1.36816 1.311222,-2.58774 0,-1.17332 -0.443198,-2.00687 -1.32846,-2.50155 -0.885715,-0.49446 -2.190812,-0.74192 -3.916198,-0.74192 z m -0.310511,-4.58893 c 3.58845,0 6.336775,0.63803 8.246336,1.91478 1.909107,1.27674 2.864,3.2607 2.864,5.95209 0,1.67935 -0.385359,3.04228 -1.155852,4.08881 -0.770946,1.04698 -1.880301,1.86919 -3.329653,2.4668 0.483117,0.59859 0.988689,1.28294 1.518077,2.05323 0.528934,0.77117 1.052425,1.57582 1.570017,2.41531 0.517594,0.83992 1.017949,1.71377 1.50084,2.62219 0.483117,0.90913 0.931758,1.80026 1.345924,2.67423 h -6.017192 c -0.439115,-0.78163 -0.883901,-1.57533 -1.333903,-2.38095 -0.450229,-0.80493 -0.911799,-1.58701 -1.385163,-2.34614 -0.473137,-0.75895 -0.941285,-1.47775 -1.402628,-2.15634 -0.462023,-0.6784 -0.924047,-1.294 -1.385843,-1.84632 h -2.656692 v 8.72975 H 39.545334 V 154.9963 c 1.173317,-0.22953 2.386327,-0.3908 3.64039,-0.48289 1.253384,-0.0916 2.37476,-0.1379 3.36413,-0.1379"
         style="fill:#fbc136;fill-opacity:1;fill-rule:nonzero;stroke:none;stroke-width:0.0342161"
         id="path1107" />
      <path
         d="M 66.010181,178.56295 V 154.65132 H 82.15832 v 4.51998 H 71.392743 v 4.69281 h 9.557784 v 4.41656 h -9.557784 v 5.76225 H 82.95195 v 4.52003 H 66.010181"
         style="fill:#fbc136;fill-opacity:1;fill-rule:nonzero;stroke:none;stroke-width:0.0342161"
         id="path1109" />
      <path
         d="m 99.94475,160.06858 c -0.120211,0.34703 -0.295998,0.81994 -0.527123,1.41737 -0.231349,0.59789 -0.494454,1.28854 -0.78977,2.07196 -0.295541,0.7832 -0.626013,1.64601 -0.991185,2.58777 -0.364947,0.94171 -0.735789,1.92952 -1.112759,2.96312 h 6.838037 c -0.36631,-1.0368 -0.72036,-2.02778 -1.06331,-2.97245 -0.34294,-0.94446 -0.66911,-1.80862 -0.97735,-2.59273 -0.30892,-0.78319 -0.57951,-1.47339 -0.81268,-2.0706 -0.23271,-0.59675 -0.42097,-1.06489 -0.56386,-1.40444 z m 6.46697,18.49437 c -0.26628,-0.8309 -0.55207,-1.68438 -0.85827,-2.55993 -0.3062,-0.87545 -0.6115,-1.7478 -0.91498,-2.61582 h -9.33868 c -0.301893,0.87253 -0.604918,1.7462 -0.907943,2.62291 -0.303481,0.87687 -0.586093,1.72804 -0.84761,2.55284 h -5.589646 c 0.899777,-2.57597 1.753058,-4.95665 2.560754,-7.1425 0.807457,-2.18514 1.597459,-4.24392 2.370674,-6.17616 0.77299,-1.93224 1.534407,-3.7665 2.284257,-5.50346 0.749857,-1.7365 1.528967,-3.4333 2.336657,-5.08951 h 5.102217 c 0.78547,1.65621 1.55981,3.35301 2.32259,5.08951 0.76233,1.73696 1.53101,3.57122 2.30536,5.50346 0.77412,1.93224 1.5657,3.99102 2.3743,6.17616 0.80883,2.18585 1.6637,4.56653 2.56529,7.1425 h -5.76497"
         style="fill:#fbc136;fill-opacity:1;fill-rule:nonzero;stroke:none;stroke-width:0.0342161"
         id="path1111" />
      <path
         d="m 125.04666,154.65132 c 0.41507,0.75915 0.8932,1.69681 1.43574,2.81229 0.54187,1.11593 1.10686,2.32349 1.695,3.62269 0.58813,1.29988 1.17059,2.62834 1.74738,3.98538 0.57634,1.35752 1.11798,2.63424 1.62605,3.82997 0.50716,-1.19573 1.04925,-2.47245 1.62604,-3.82997 0.57634,-1.35704 1.15857,-2.6855 1.7467,-3.98538 0.58837,-1.2992 1.15313,-2.50676 1.69545,-3.62269 0.54186,-1.11548 1.02067,-2.05314 1.43574,-2.81229 h 4.89967 c 0.22977,1.58703 0.44252,3.36413 0.63849,5.33085 0.19506,1.96694 0.36767,4.01463 0.51759,6.14171 0.14925,2.12826 0.28715,4.26164 0.41394,6.40071 0.12634,2.13933 0.23566,4.15259 0.32775,6.03836 h -5.24465 c -0.069,-2.32309 -0.16127,-4.85324 -0.27604,-7.59116 -0.11523,-2.73694 -0.28783,-5.49728 -0.51759,-8.28077 -0.41576,0.96579 -0.8771,2.03567 -1.38449,3.20877 -0.50784,1.17309 -1.00955,2.3464 -1.50583,3.51947 -0.49604,1.17332 -0.97462,2.29447 -1.43619,3.36413 -0.46135,1.06966 -0.85396,1.98421 -1.17695,2.74331 h -3.76106 c -0.32321,-0.7591 -0.71537,-1.67365 -1.17694,-2.74331 -0.46134,-1.06966 -0.94061,-2.19081 -1.43665,-3.36413 -0.49582,-1.17307 -0.99799,-2.34638 -1.50538,-3.51947 -0.50784,-1.1731 -0.96918,-2.24298 -1.38425,-3.20877 -0.23045,2.78349 -0.40305,5.54383 -0.51759,8.28077 -0.11546,2.73792 -0.20732,5.26807 -0.27604,7.59116 h -5.24466 c 0.0914,-1.88577 0.20073,-3.89903 0.32752,-6.03836 0.12634,-2.13907 0.26424,-4.27245 0.41417,-6.40071 0.14924,-2.12708 0.32185,-4.17477 0.51737,-6.14171 0.19551,-1.96672 0.40827,-3.74382 0.63848,-5.33085 h 5.14123"
         style="fill:#fbc136;fill-opacity:1;fill-rule:nonzero;stroke:none;stroke-width:0.0342161"
         id="path1113" />
      <path
         d="m 153.09831,154.65132 h 5.38188 v 23.91163 h -5.38188 v -23.91163"
         style="fill:#fbc136;fill-opacity:1;fill-rule:nonzero;stroke:none;stroke-width:0.0342161"
         id="path1115" />
      <path
         d="m 183.49569,178.56295 c -1.54008,-2.73703 -3.20718,-5.43977 -5.00129,-8.10866 -1.79638,-2.66785 -3.7039,-5.18687 -5.72936,-7.55641 v 15.66507 h -5.31429 v -23.91163 h 4.38434 c 0.75757,0.75915 1.59679,1.69068 2.51766,2.79505 0.92087,1.10414 1.85762,2.28312 2.81251,3.53651 0.9549,1.25406 1.90299,2.55326 2.84654,3.89918 0.94355,1.34547 1.82813,2.63948 2.65601,3.88148 v -14.11222 h 5.34831 v 23.91163 h -4.52043"
         style="fill:#fbc136;fill-opacity:1;fill-rule:nonzero;stroke:none;stroke-width:0.0342161"
         id="path1117" />
      <path
         d="m 201.09431,152.09805 c 0.0454,0.32231 0.0794,0.6555 0.10207,1.00072 0.0227,0.34498 0.0363,0.59833 0.0363,0.75892 0,1.54144 -0.27672,3.0078 -0.82788,4.39932 -0.55343,1.39219 -1.23161,2.57072 -2.03681,3.53696 l -3.62224,-0.82833 c 0.43548,-0.98869 0.78705,-2.10485 1.05243,-3.34689 0.2631,-1.24205 0.39692,-2.4267 0.39692,-3.55398 0,-0.0458 0,-0.14334 0,-0.2935 0,-0.14924 -0.007,-0.32162 -0.0181,-0.51736 -0.0113,-0.19506 -0.0227,-0.39693 -0.034,-0.60379 -0.0113,-0.20708 -0.0295,-0.39103 -0.0521,-0.55207 h 5.00355"
         style="fill:#fbc136;fill-opacity:1;fill-rule:nonzero;stroke:none;stroke-width:0.0342161"
         id="path1119" />
    </g>
  </g>
</svg>
