<?xml version="1.0" encoding="UTF-8" standalone="no"?>
<svg
   width="1600"
   height="900"
   viewBox="0 0 1600 900"
   id="svg2"
   version="1.1"
   inkscape:version="1.2.2 (b0a8486541, 2022-12-01)"
   sodipodi:docname="SpeakerTemplate_2024.svg"
   inkscape:export-filename="../../img/sessions/2024/mastering-record-visibility-in-salesforce_maggarwal.png"
   inkscape:export-xdpi="96"
   inkscape:export-ydpi="96"
   xml:space="preserve"
   xmlns:inkscape="http://www.inkscape.org/namespaces/inkscape"
   xmlns:sodipodi="http://sodipodi.sourceforge.net/DTD/sodipodi-0.dtd"
   xmlns="http://www.w3.org/2000/svg"
   xmlns:svg="http://www.w3.org/2000/svg"
   xmlns:rdf="http://www.w3.org/1999/02/22-rdf-syntax-ns#"
   xmlns:cc="http://creativecommons.org/ns#"
   xmlns:dc="http://purl.org/dc/elements/1.1/"><defs
     id="defs4"><clipPath
       clipPathUnits="userSpaceOnUse"
       id="clipPath4243"><rect
         style="color:#000000;clip-rule:nonzero;display:inline;overflow:visible;visibility:visible;opacity:1;isolation:auto;mix-blend-mode:normal;color-interpolation:sRGB;color-interpolation-filters:linearRGB;solid-color:#000000;solid-opacity:1;fill:#ffffff;fill-opacity:1;fill-rule:nonzero;marker:none;color-rendering:auto;image-rendering:auto;shape-rendering:auto;text-rendering:auto;enable-background:accumulate"
         id="rect4245"
         width="440"
         height="220"
         x="0"
         y="832.36218" /></clipPath><clipPath
       clipPathUnits="userSpaceOnUse"
       id="clipPath4392"><circle
         style="color:#000000;clip-rule:nonzero;display:inline;overflow:visible;visibility:visible;opacity:1;isolation:auto;mix-blend-mode:normal;color-interpolation:sRGB;color-interpolation-filters:linearRGB;solid-color:#000000;solid-opacity:1;fill:#0d7781;fill-opacity:1;fill-rule:nonzero;marker:none;color-rendering:auto;image-rendering:auto;shape-rendering:auto;text-rendering:auto;enable-background:accumulate"
         id="circle4394"
         cx="82.5"
         cy="48.214287"
         r="50" /></clipPath><clipPath
       clipPathUnits="userSpaceOnUse"
       id="clipPath4392-8"><circle
         style="color:#000000;clip-rule:nonzero;display:inline;overflow:visible;visibility:visible;opacity:1;isolation:auto;mix-blend-mode:normal;color-interpolation:sRGB;color-interpolation-filters:linearRGB;solid-color:#000000;solid-opacity:1;fill:#0d7781;fill-opacity:1;fill-rule:nonzero;marker:none;color-rendering:auto;image-rendering:auto;shape-rendering:auto;text-rendering:auto;enable-background:accumulate"
         id="circle4394-9"
         cx="82.5"
         cy="48.214287"
         r="50" /></clipPath><clipPath
       clipPathUnits="userSpaceOnUse"
       id="clipPath513"><path
         style="fill:none;stroke:#000000;stroke-width:0.0903204px;stroke-linecap:butt;stroke-linejoin:miter;stroke-opacity:1"
         d="m 42.530523,73.314581 0.01422,-7.250235 51.147258,-21.72799 20.267039,9.193442 3.05866,18.089963 -10.08414,49.193949 -12.117515,-3.96146 -8.930579,-14.4579 -16.262243,-1.93231 -1.492546,5.66544 -24.431367,-0.0162 z"
         id="path515" /></clipPath></defs><sodipodi:namedview
     id="base"
     pagecolor="#ffffff"
     bordercolor="#666666"
     borderopacity="1.0"
     inkscape:pageopacity="0.0"
     inkscape:pageshadow="2"
     inkscape:zoom="0.60005135"
     inkscape:cx="642.44501"
     inkscape:cy="501.62373"
     inkscape:document-units="px"
     inkscape:current-layer="layer2"
     showgrid="false"
     units="px"
     borderlayer="true"
     showguides="false"
     inkscape:snap-bbox="true"
     inkscape:object-nodes="true"
     inkscape:window-width="2048"
     inkscape:window-height="1113"
     inkscape:window-x="1080"
     inkscape:window-y="0"
     inkscape:window-maximized="1"
     inkscape:snap-global="false"
     inkscape:bbox-paths="true"
     inkscape:snap-page="true"
     inkscape:document-rotation="0"
     inkscape:showpageshadow="2"
     inkscape:pagecheckerboard="0"
     inkscape:deskcolor="#d1d1d1" /><metadata
     id="metadata7"><rdf:RDF><cc:Work
         rdf:about=""><dc:format>image/svg+xml</dc:format><dc:type
           rdf:resource="http://purl.org/dc/dcmitype/StillImage" /></cc:Work></rdf:RDF></metadata><g
     inkscape:groupmode="layer"
     id="layer5"
     inkscape:label="Background"
     style="display:inline"
     sodipodi:insensitive="true"><rect
       style="display:inline;opacity:1;fill:#ffffff;fill-opacity:1;stroke:none;stroke-width:3;stroke-linecap:round;stroke-linejoin:round;paint-order:stroke fill markers;stop-color:#000000"
       id="rect6178"
       width="1600"
       height="900"
       x="0"
       y="0" /><rect
       style="color:#000000;clip-rule:nonzero;display:inline;overflow:visible;visibility:visible;opacity:1;isolation:auto;mix-blend-mode:normal;color-interpolation:sRGB;color-interpolation-filters:linearRGB;solid-color:#000000;solid-opacity:1;fill:#4598bc;fill-opacity:1;fill-rule:nonzero;stroke-width:1;marker:none;color-rendering:auto;image-rendering:auto;shape-rendering:auto;text-rendering:auto;enable-background:accumulate"
       id="rect4296"
       width="1600"
       height="175"
       x="0"
       y="725" /><text
       xml:space="preserve"
       style="font-style:normal;font-variant:normal;font-weight:normal;font-stretch:normal;font-size:67.8789px;line-height:0%;font-family:FontAwesome;-inkscape-font-specification:FontAwesome;text-align:center;letter-spacing:2.99782px;word-spacing:0px;text-anchor:middle;display:inline;fill:#ffffff;fill-opacity:1;stroke-width:1"
       x="800.35547"
       y="800.70074"
       id="text4298"><tspan
         sodipodi:role="line"
         id="tspan4300"
         x="800.35547"
         y="800.70074"
         style="font-style:normal;font-variant:normal;font-weight:bold;font-stretch:normal;font-size:67.8789px;line-height:1;font-family:'Liberation Serif';-inkscape-font-specification:'Liberation Serif Bold';fill:#ffffff;fill-opacity:1;stroke-width:1">COME HEAR ME SPEAK AT</tspan><tspan
         sodipodi:role="line"
         x="801.85437"
         y="868.57965"
         style="font-style:normal;font-variant:normal;font-weight:bold;font-stretch:normal;font-size:67.8789px;line-height:1;font-family:'Liberation Serif';-inkscape-font-specification:'Liberation Serif Bold';fill:#ffffff;fill-opacity:1;stroke-width:1"
         id="tspan4302">SOUTHEAST DREAMIN'</tspan></text><path
       id="path3169"
       style="color:#000000;display:inline;fill:#5498bc;stroke-width:0.999999;stroke-linecap:round;stroke-linejoin:round;-inkscape-stroke:none"
       d="m 1043.9366,42.751376 c -3.5641,0 -6.5816,2.94576 -6.5816,6.58158 0,3.62457 2.9571,6.58159 6.5816,6.58159 2.4268,0 4.5535,-1.32692 5.6946,-3.2908 h 94.6488 l 32.9379,32.93791 a 3.2911204,3.2911204 0 0 0 5.6175,-2.3267 v -28.20739 c 1.9639,-1.14114 3.2908,-3.26791 3.2908,-5.69461 0,-3.62458 -2.9569,-6.58158 -6.5816,-6.58158 -3.6244,0 -6.5816,2.957 -6.5816,6.58158 0,2.3887 1.3236,4.52798 3.2908,5.68175 v 20.27608 l -28.2845,-28.28453 a 3.2911204,3.2911204 0 0 0 -2.3267,-0.96409 h -96.0114 c -1.1409,-1.96489 -3.2671,-3.29079 -5.6946,-3.29079 z m 169.51,0 c -3.6247,0 -6.5815,2.957 -6.5815,6.58158 0,2.4267 1.3269,4.55347 3.2907,5.69461 v 28.20739 a 3.2911204,3.2911204 0 0 0 0.9641,2.3267 l 29.8742,29.874214 c -0.5834,2.19572 -0.018,4.63811 1.7011,6.35447 2.5631,2.56298 6.748,2.56296 9.3111,0 2.5631,-2.56293 2.5629,-6.74382 0,-9.30677 -1.2602,-1.26011 -2.9457,-1.90471 -4.6363,-1.91105 v 0 c -0.5754,-0.002 -1.1495,0.0722 -1.7096,0.21851 l -28.9187,-28.918684 v -26.8448 c 1.9639,-1.14114 3.2908,-3.26791 3.2908,-5.69461 0,-3.56419 -2.9459,-6.58158 -6.5816,-6.58158 z m -203.412,0.004 c -1.6862,0 -3.3719,0.64245 -4.6534,1.9239 -2.563,2.56296 -2.5628,6.74382 0,9.30678 1.6889,1.68879 4.1396,2.26727 6.3459,1.69254 l 62.8207,62.820674 v 202.04946 a 3.2911204,3.2911204 0 0 0 0.9641,2.32667 l 32.9379,32.93793 v 26.84478 c -1.9639,1.14116 -3.2908,3.26791 -3.2908,5.69463 0,3.56417 2.9457,6.58158 6.5816,6.58158 3.6245,0 6.5816,-2.95701 6.5816,-6.58158 0,-2.42672 -1.3269,-4.55347 -3.2908,-5.69463 v -28.2075 a 3.2911204,3.2911204 0 0 0 -0.9641,-2.32667 L 1081.1294,319.1864 V 117.13697 a 3.2911204,3.2911204 0 0 0 -0.9641,-2.3267 l -63.7805,-63.780494 c 0.5818,-2.19531 0.02,-4.63427 -1.6968,-6.35022 -1.2814,-1.28147 -2.9672,-1.9239 -4.6534,-1.9239 z m 101.706,33.89772 c -3.5641,0 -6.5816,2.94578 -6.5816,6.58158 0,3.62456 2.9569,6.58158 6.5816,6.58158 2.4267,0 4.5535,-1.32691 5.6946,-3.29079 h 26.8448 l 32.9379,32.937924 a 3.2911204,3.2911204 0 0 0 2.3267,0.96409 h 32.5395 l 32.9378,32.9379 a 3.2911204,3.2911204 0 0 0 2.3267,0.96409 h 62.1094 c 1.1412,1.96388 3.268,3.29079 5.6946,3.29079 3.6247,0 6.5816,-2.95701 6.5816,-6.58158 0,-3.62456 -2.9569,-6.58158 -6.5816,-6.58158 -2.3896,0 -4.5325,1.32228 -5.686,3.29079 h -60.7554 l -32.9379,-32.9379 a 3.2911204,3.2911204 0 0 0 -2.3267,-0.9641 h -32.5394 l -32.9379,-32.937894 a 3.2911204,3.2911204 0 0 0 -2.3267,-0.96411 h -28.2074 c -1.1409,-1.96489 -3.2672,-3.29079 -5.6946,-3.29079 z m -101.706,0.004 c -1.6862,0 -3.3719,0.64243 -4.6534,1.92391 -2.563,2.56293 -2.5628,6.74382 0,9.30677 1.6889,1.68879 4.1396,2.26725 6.3459,1.69252 l 28.9187,28.918684 v 60.74682 c -1.9639,1.14114 -3.2908,3.26789 -3.2908,5.69461 0,3.56417 2.9459,6.58158 6.5816,6.58158 3.6247,0 6.5816,-2.95702 6.5816,-6.58158 0,-2.42672 -1.3269,-4.55347 -3.2908,-5.69461 v -62.10941 a 3.2911204,3.2911204 0 0 0 -0.9641,-2.3267 l -29.8785,-29.878484 c 0.5818,-2.19529 0.02,-4.63425 -1.6968,-6.3502 -1.2814,-1.28148 -2.9672,-1.92388 -4.6534,-1.92391 z m 67.8211,0.0132 c -1.6905,-0.007 -3.3851,0.6256 -4.6705,1.91105 -2.5633,2.56291 -2.5631,6.74382 0,9.30677 1.7153,1.71536 4.1555,2.27756 6.3502,1.6968 l 28.9144,28.914404 v 32.53941 a 3.2911204,3.2911204 0 0 0 0.9641,2.3267 l 29.8742,29.87422 c -0.5824,2.19572 -0.015,4.6381 1.7011,6.35447 2.5629,2.56296 6.7439,2.56293 9.3068,0 2.5631,-2.56293 2.5629,-6.74382 0,-9.30677 -1.2602,-1.26011 -2.9457,-1.90474 -4.6362,-1.91105 -0.5755,-0.002 -1.1496,0.0722 -1.7097,0.2185 l -28.9187,-28.91794 v -32.53941 a 3.2911204,3.2911204 0 0 0 -0.9641,-2.3267 l -29.8742,-29.874214 c 0.5832,-2.19617 0.015,-4.63765 -1.7011,-6.35448 -1.2604,-1.26013 -2.9459,-1.90471 -4.6363,-1.91105 z m 67.7869,33.884854 c -3.6245,0 -6.5816,2.95699 -6.5816,6.58158 0,2.4267 1.327,4.55347 3.2908,5.69461 v 28.20739 a 3.2911204,3.2911204 0 0 0 0.9641,2.3267 l 31.5753,31.57531 -31.5753,31.57532 a 3.2911204,3.2911204 0 0 0 0,4.65338 l 29.8742,29.87422 c -0.5824,2.19573 -0.015,4.63811 1.7011,6.35447 2.5631,2.56298 6.7439,2.56296 9.3068,0 2.5633,-2.56293 2.5631,-6.74381 0,-9.30677 -1.2601,-1.26013 -2.9456,-1.90471 -4.6362,-1.91105 -0.5754,-0.002 -1.1496,0.0722 -1.7097,0.21851 l -27.5561,-27.55658 31.5753,-31.57532 a 3.2911204,3.2911204 0 0 0 0,-4.65338 l -32.9379,-32.9379 v -26.84481 c 1.9639,-1.14114 3.2908,-3.26791 3.2908,-5.6946 0,-3.56419 -2.9457,-6.58159 -6.5816,-6.58159 z m 33.902,33.90629 c -1.6862,0 -3.3717,0.64243 -4.6534,1.92391 -2.563,2.56293 -2.5628,6.74382 0,9.30677 1.689,1.6888 4.1397,2.26725 6.346,1.69252 l 27.5561,27.5561 -31.5754,31.57532 a 3.2911204,3.2911204 0 0 0 0,4.65338 l 31.5754,31.57532 -27.5476,27.54752 c -0.5563,-0.14787 -1.1288,-0.22281 -1.7011,-0.22281 -1.6862,2e-5 -3.3717,0.64243 -4.6534,1.92391 -2.52,2.52026 -2.5709,6.7359 0,9.30677 2.5631,2.56296 6.7439,2.56298 9.3068,0 1.7165,-1.71639 2.2836,-4.15877 1.7011,-6.35449 l 29.8742,-29.8742 a 3.2911204,3.2911204 0 0 0 0,-4.6534 l -31.5753,-31.57532 31.5753,-31.57532 a 3.2911204,3.2911204 0 0 0 0,-4.65337 l -29.8742,-29.87423 c 0.5833,-2.19616 0.015,-4.63764 -1.7011,-6.35447 -1.2814,-1.28148 -2.9672,-1.92388 -4.6534,-1.92391 z m 33.9192,0.0132 c -1.6906,-0.007 -3.3852,0.6256 -4.6705,1.91105 -2.5633,2.56291 -2.5631,6.74382 0,9.30677 1.7152,1.71536 4.1554,2.27756 6.3502,1.6968 l 29.8784,29.8785 a 3.2911204,3.2911204 0 0 0 2.3267,0.96411 h 100.3392 l 65.8758,65.87581 v 32.53941 a 3.2911204,3.2911204 0 0 0 0.9641,2.3267 l 63.7762,63.77622 c -0.5825,2.19572 -0.015,4.6381 1.7011,6.35449 2.5629,2.56298 6.7439,2.56296 9.3068,0 2.5631,-2.56291 2.5672,-6.74379 0,-9.30677 -1.2593,-1.25908 -2.9431,-1.90366 -4.632,-1.91105 v 0 c -0.5748,-0.002 -1.1496,0.0722 -1.7097,0.21851 l -62.8207,-62.82068 v -32.53942 a 3.2911204,3.2911204 0 0 0 -0.9598,-2.32669 l -67.804,-67.80402 a 3.2911204,3.2911204 0 0 0 -2.3267,-0.96409 h -100.3438 l -28.9101,-28.91013 c 0.5832,-2.19616 0.015,-4.63764 -1.7011,-6.35447 -1.2604,-1.26013 -2.9459,-1.90471 -4.6362,-1.91105 z m -101.7232,33.88486 c -3.6247,0 -6.5816,2.95699 -6.5816,6.58158 0,2.4267 1.3269,4.55347 3.2908,5.69461 V 314.8545 c -1.9639,1.14114 -3.2908,3.26789 -3.2908,5.69461 0,3.62456 2.9569,6.58158 6.5816,6.58158 3.6245,0 6.5816,-2.95702 6.5816,-6.58158 0,-2.38872 -1.3235,-4.53228 -3.2908,-5.68605 V 190.6364 c 1.9639,-1.14114 3.2908,-3.26791 3.2908,-5.69461 0,-3.56419 -2.9457,-6.58158 -6.5816,-6.58158 z m 101.706,33.90199 c -3.5641,0 -6.5815,2.94579 -6.5815,6.58159 0,3.62456 2.9568,6.58158 6.5815,6.58158 2.4267,0 4.5535,-1.32691 5.6946,-3.29079 h 128.5466 l 28.9101,28.91013 c -0.5825,2.19572 -0.015,4.6381 1.7011,6.35447 2.5631,2.56296 6.7479,2.56294 9.311,0 2.5631,-2.56293 2.5629,-6.74382 0,-9.30677 -1.2601,-1.26011 -2.9456,-1.90474 -4.6362,-1.91105 -0.5759,-0.002 -1.1529,0.0676 -1.714,0.21434 l -29.8785,-29.8785 a 3.2911204,3.2911204 0 0 0 -2.3267,-0.96412 h -129.9134 c -1.1409,-1.96488 -3.2672,-3.29079 -5.6946,-3.29079 z m -67.804,33.90202 c -3.6245,0 -6.5816,2.957 -6.5816,6.58158 0,2.4267 1.327,4.55347 3.2908,5.69461 v 96.0114 a 3.2911204,3.2911204 0 0 0 0.9641,2.3267 l 31.5753,31.57532 -31.5753,31.57532 a 3.2911204,3.2911204 0 0 0 0,4.65338 l 66.8399,66.83992 v 32.53941 a 3.2911204,3.2911204 0 0 0 0.9641,2.3267 l 29.8742,29.8742 c -0.5834,2.19572 -0.018,4.6381 1.7011,6.35449 2.5631,2.563 6.748,2.56296 9.3111,0 2.5631,-2.56291 2.5629,-6.74382 0,-9.30677 -1.2602,-1.26013 -2.9457,-1.90471 -4.6363,-1.91105 v 0 c -0.5754,-0.002 -1.1495,0.0722 -1.7096,0.21851 l -28.9186,-28.9195 v -32.53941 a 3.2911204,3.2911204 0 0 0 -0.9641,-2.32668 l -65.4773,-65.47733 31.5753,-31.5753 a 3.2911204,3.2911204 0 0 0 0,-4.6534 l -32.9379,-32.9379 v -94.64882 c 1.9639,-1.14114 3.2908,-3.26791 3.2908,-5.69461 0,-3.56419 -2.9457,-6.58158 -6.5816,-6.58158 z m 169.51,0 c -2.3896,0 -4.5325,1.32229 -5.686,3.29079 h -62.118 a 3.2911204,3.2911204 0 0 0 -2.3267,0.9641 l -63.7762,63.77621 c -0.5563,-0.14786 -1.1288,-0.22281 -1.7011,-0.22281 -1.6862,0 -3.3717,0.64243 -4.6534,1.92391 -2.52,2.52029 -2.5709,6.7359 0,9.30677 2.5631,2.56294 6.7439,2.56296 9.3068,0 1.7165,-1.71638 2.2836,-4.15877 1.7011,-6.35447 l 62.8121,-62.81212 h 60.7468 c 1.1412,1.96387 3.268,3.29079 5.6946,3.29079 3.6247,0 6.5816,-2.95702 6.5816,-6.58159 0,-3.62458 -2.9569,-6.58158 -6.5816,-6.58158 z m 34.5448,3.35077 a 3.2911204,3.2911204 0 0 0 -1.9025,0.18846 3.2911204,3.2911204 0 0 0 -2.031,3.04227 v 28.20739 c -1.9662,1.14089 -3.2951,3.26716 -3.2951,5.6946 0,3.56419 2.95,6.58159 6.5858,6.58159 3.6245,0 6.5816,-2.95702 6.5816,-6.58159 0,-2.42669 -1.3269,-4.55347 -3.2908,-5.6946 v -20.25893 l 27.3162,27.31614 v 32.53941 a 3.2911204,3.2911204 0 0 0 0.9641,2.32668 l 32.9379,32.93792 v 32.53941 a 3.2911204,3.2911204 0 0 0 0.9641,2.3267 l 63.7762,63.77622 c -0.5825,2.1957 -0.015,4.63808 1.7011,6.35447 2.5629,2.56296 6.7439,2.56294 9.3068,0 2.5631,-2.56293 2.5672,-6.74379 0,-9.30677 -1.2593,-1.25904 -2.9431,-1.90366 -4.632,-1.91105 v 0 c -0.5748,-0.002 -1.1496,0.0722 -1.7097,0.21851 l -62.8209,-62.8207 V 354.451 a 3.2911204,3.2911204 0 0 0 -0.9598,-2.32667 l -32.9462,-32.93793 v -32.53941 a 3.2911204,3.2911204 0 0 0 -0.9599,-2.32668 l -33.902,-33.90202 a 3.2911204,3.2911204 0 0 0 -1.6839,-0.90411 z m -102.3488,30.55123 c -3.5641,0 -6.5816,2.94578 -6.5816,6.58158 0,3.62457 2.9569,6.58158 6.5816,6.58158 2.4267,0 4.5535,-1.32691 5.6946,-3.29079 h 22.5128 c 1.1412,1.96388 3.268,3.29079 5.6946,3.29079 3.6247,0 6.5816,-2.95701 6.5816,-6.58158 0,-3.62456 -2.9569,-6.58158 -6.5816,-6.58158 -2.3896,0 -4.5326,1.32228 -5.686,3.29079 h -22.5214 c -1.1409,-1.96489 -3.2672,-3.29079 -5.6946,-3.29079 z m 66.9513,3.40219 a 3.2911204,3.2911204 0 0 0 -1.474,0.85271 l -32.9422,32.93791 h -60.7425 c -1.1409,-1.96489 -3.2672,-3.29079 -5.6946,-3.29079 -3.6247,0 -6.5815,2.95699 -6.5815,6.58158 0,3.62456 2.9568,6.58158 6.5815,6.58158 2.3876,0 4.5276,-1.32509 5.6818,-3.29079 h 62.1222 a 3.2911204,3.2911204 0 0 0 2.3267,-0.96411 l 31.5753,-31.5753 25.9536,25.95783 h -25.9536 a 3.2911204,3.2911204 0 0 0 -2.3267,0.96409 l -32.9422,32.9379 h -94.6445 c -1.1408,-1.96488 -3.267,-3.29079 -5.6946,-3.29079 -3.5641,0 -6.5816,2.94579 -6.5816,6.58158 0,3.62457 2.9572,6.58159 6.5816,6.58159 2.4268,0 4.5535,-1.32692 5.6946,-3.29079 h 96.0114 a 3.2911204,3.2911204 0 0 0 2.3267,-0.9641 l 32.9379,-32.9379 h 32.5394 a 3.2911204,3.2911204 0 0 0 2.3267,-5.61749 l -33.902,-33.902 a 3.2911204,3.2911204 0 0 0 -3.1794,-0.85271 z m 102.5759,30.51696 c -1.6906,-0.007 -3.3894,0.6256 -4.6748,1.91105 -2.5633,2.56293 -2.5631,6.74382 0,9.30677 1.7146,1.71475 4.1548,2.27655 6.3502,1.69682 l 28.9144,28.91441 v 32.53941 a 3.2911204,3.2911204 0 0 0 0.9641,2.3267 l 67.804,67.80399 a 3.2911204,3.2911204 0 0 0 4.6534,0 l 33.902,-33.90281 a 3.2911204,3.2911204 0 0 0 -2.3267,-5.61749 h -32.5351 l -27.3247,-27.32041 h 20.2632 c 1.1411,1.96388 3.2679,3.29079 5.6946,3.29079 3.6247,0 6.5816,-2.95701 6.5816,-6.58158 0,-3.62459 -2.9569,-6.58158 -6.5816,-6.58158 -2.3896,0 -4.5326,1.32228 -5.6861,3.29079 h -28.2159 a 3.2911204,3.2911204 0 0 0 -2.3267,5.61749 l 33.902,33.90199 a 3.2911204,3.2911204 0 0 0 2.3267,0.9641 h 25.9578 l -25.9578,25.95783 -64.5132,-64.51323 v -32.53941 a 3.2911204,3.2911204 0 0 0 -0.9641,-2.32667 l -29.8742,-29.87423 c 0.5835,-2.19634 0.02,-4.63749 -1.6969,-6.35449 -1.2601,-1.26013 -2.9456,-1.90471 -4.6362,-1.91105 z m -101.7232,33.88486 c -3.5641,0 -6.5816,2.94579 -6.5816,6.58158 0,3.62457 2.9572,6.58159 6.5816,6.58159 2.4268,0 4.5535,-1.32692 5.6947,-3.29079 h 56.4105 c 1.1411,1.96387 3.2679,3.29079 5.6946,3.29079 3.6247,0 6.5858,-2.95702 6.5858,-6.58159 0,-3.62456 -2.9611,-6.58158 -6.5858,-6.58158 -2.3897,0 -4.5326,1.32229 -5.6861,3.29079 h -56.419 c -1.1409,-1.96488 -3.2671,-3.29079 -5.6947,-3.29079 z m -169.51,33.9063 c -1.6862,0 -3.3719,0.64243 -4.6534,1.9239 -1.7167,1.71683 -2.2843,4.15834 -1.7011,6.3545 l -29.8742,29.87422 a 3.2911204,3.2911204 0 0 0 -0.9641,2.32668 v 169.51004 a 3.2911204,3.2911204 0 0 0 0.9641,2.32668 l 33.902,33.90202 a 3.2911204,3.2911204 0 0 0 2.3267,0.96409 h 101.706 a 3.2911204,3.2911204 0 0 0 2.3267,-5.61747 l -29.8742,-29.87422 c 0.5832,-2.19616 0.015,-4.63767 -1.7011,-6.3545 -1.2816,-1.28147 -2.9672,-1.9239 -4.6534,-1.9239 -1.6862,-2e-5 -3.3719,0.64243 -4.6533,1.9239 -2.5633,2.56294 -2.5631,6.74382 0,9.30678 1.6888,1.68881 4.1395,2.26727 6.3459,1.69254 l 24.2652,24.26529 h -92.3992 l -31.9738,-31.9731 V 423.61843 l 28.9144,-28.9144 c 2.1947,0.58073 4.6349,0.0176 6.3502,-1.69682 2.5201,-2.52027 2.5712,-6.73588 0,-9.30678 -1.2814,-1.28145 -2.9672,-1.9239 -4.6534,-1.9239 z m 67.804,3.28651 a 3.2911204,3.2911204 0 0 0 -2.3267,0.96409 l -33.902,33.90202 a 3.2911204,3.2911204 0 0 0 2.3267,5.61747 h 28.2074 c 1.1411,1.96388 3.2679,3.29079 5.6946,3.29079 3.5642,0 6.5816,-2.94576 6.5816,-6.58158 0,-3.62457 -2.9571,-6.58159 -6.5816,-6.58159 -2.4275,0 -4.5537,1.32591 -5.6946,3.2908 h -20.2632 l 27.3204,-27.32042 h 166.7806 l 30.6112,30.61121 -63.1506,63.14636 -29.2444,-29.24434 30.6112,-30.61123 h 24.591 l -24.2567,24.25744 c -0.557,-0.14787 -1.1289,-0.22281 -1.7011,-0.22281 -1.6862,0 -3.372,0.64243 -4.6534,1.92391 -2.5629,2.56295 -2.5631,6.74384 0,9.30677 2.5628,2.56294 6.7479,2.56296 9.311,0 1.6887,-1.68879 2.2672,-4.13957 1.6926,-6.34592 l 29.8827,-29.88277 a 3.2911204,3.2911204 0 0 0 -2.3309,-5.61749 h -33.8978 a 3.2911204,3.2911204 0 0 0 -2.3309,0.96411 l -33.8978,33.902 a 3.2911204,3.2911204 0 0 0 0,4.65337 l 33.8978,33.90202 a 3.2911204,3.2911204 0 0 0 4.6576,0 l 67.8041,-67.80401 a 3.2911204,3.2911204 0 0 0 0,-4.65338 l -33.9021,-33.90202 a 3.2911204,3.2911204 0 0 0 -2.3309,-0.96409 z m 101.706,30.6112 c -2.4274,0 -4.5537,1.32591 -5.6946,3.2908 h -62.1094 a 3.2911204,3.2911204 0 0 0 -2.3267,0.96411 l -33.902,33.902 a 3.2911204,3.2911204 0 0 0 0,4.65337 l 32.9379,32.93793 v 32.53941 a 3.2911204,3.2911204 0 0 0 0.9641,2.3267 l 29.8742,29.8742 c -0.5834,2.19572 -0.018,4.6381 1.7012,6.35449 2.5628,2.56298 6.7481,2.56296 9.311,0 2.5631,-2.56291 2.5629,-6.74382 0,-9.30677 -1.2601,-1.26013 -2.9457,-1.90471 -4.6362,-1.91105 v 0 c -0.575,-0.002 -1.1496,0.072 -1.7097,0.21851 l -28.9186,-28.9195 v -32.53941 a 3.2911204,3.2911204 0 0 0 -0.9641,-2.32668 l -31.5753,-31.57532 30.6112,-30.61122 h 60.7468 c 1.1412,1.96388 3.268,3.29079 5.6946,3.29079 3.5642,0 6.5816,-2.94576 6.5816,-6.58158 0,-3.62457 -2.9569,-6.58159 -6.5816,-6.58159 z m -169.51,33.90202 c -3.6245,0 -6.5816,2.957 -6.5816,6.58159 0,2.42669 1.327,4.55346 3.2908,5.6946 v 90.3168 c -1.9638,1.14114 -3.2908,3.26791 -3.2908,5.6946 0,3.62457 2.9571,6.58159 6.5816,6.58159 3.6247,0 6.5816,-2.95702 6.5816,-6.58159 0,-2.38872 -1.3235,-4.53225 -3.2908,-5.68602 v -90.32467 c 1.9639,-1.14114 3.2908,-3.26791 3.2908,-5.6946 0,-3.5642 -2.9457,-6.58159 -6.5816,-6.58159 z m 135.608,0 c -2.3896,0 -4.5326,1.32229 -5.686,3.29079 h -28.216 a 3.2911204,3.2911204 0 0 0 -2.3267,5.61747 l 32.9379,32.93793 v 32.53941 a 3.2911204,3.2911204 0 0 0 0.9641,2.3267 l 31.5711,31.57529 -27.5433,27.54753 c -0.5562,-0.14809 -1.1289,-0.22244 -1.7011,-0.22281 v 0 c -1.6848,10e-4 -3.373,0.64352 -4.6534,1.9239 -2.5203,2.52027 -2.5668,6.7359 0,9.30678 2.5633,2.55991 6.7448,2.56195 9.3068,0 1.7153,-1.71534 2.2818,-4.1555 1.7011,-6.3502 l 29.8786,-29.87931 a 3.2911204,3.2911204 0 0 0 0,-4.65337 l -32.9379,-32.93793 v -32.53941 a 3.2911204,3.2911204 0 0 0 -0.9641,-2.32668 l -28.2845,-28.28453 h 20.2632 c 1.1412,1.96388 3.268,3.2908 5.6946,3.2908 3.6247,0 6.5816,-2.95702 6.5816,-6.58159 0,-3.62458 -2.9569,-6.58158 -6.5816,-6.58158 z m 169.5058,0 c -2.4276,0 -4.5538,1.32591 -5.6946,3.29079 h -28.2074 a 3.2911204,3.2911204 0 0 0 -2.3267,0.9641 l -67.804,67.80401 a 3.2911204,3.2911204 0 0 0 0,4.6534 l 63.7762,63.77621 c -0.5825,2.19573 -0.015,4.63811 1.7011,6.35448 2.5628,2.56295 6.7482,2.56293 9.311,0 2.5631,-2.56294 2.5629,-6.74382 0,-9.30678 -1.2601,-1.26011 -2.9456,-1.90473 -4.6362,-1.91105 -0.5759,-0.002 -1.1529,0.0676 -1.714,0.21434 l -61.4538,-61.45381 64.5132,-64.51323 h 26.8406 c 1.1411,1.96388 3.2678,3.2908 5.6946,3.2908 3.5641,0 6.5816,-2.94579 6.5816,-6.58159 0,-3.62458 -2.9571,-6.58158 -6.5816,-6.58158 z m 101.0633,3.35507 a 3.2911204,3.2911204 0 0 0 -1.684,0.89982 l -32.9379,32.9379 h -26.8448 c -1.1409,-1.96489 -3.2671,-3.29079 -5.6946,-3.29079 -3.6247,0 -6.5816,2.95702 -6.5816,6.58158 0,3.62457 2.9569,6.58158 6.5816,6.58158 2.3875,0 4.5275,-1.32509 5.6817,-3.29079 h 28.2203 a 3.2911204,3.2911204 0 0 0 2.3267,-0.96409 l 28.2845,-28.28453 v 24.59525 l -65.8758,65.8758 h -26.8448 c -1.1409,-1.96488 -3.2672,-3.29079 -5.6946,-3.29079 -3.5642,0 -6.5816,2.94579 -6.5816,6.58158 0,3.62457 2.9569,6.58159 6.5816,6.58159 2.4266,0 4.5534,-1.32692 5.6946,-3.29079 h 28.2074 a 3.2911204,3.2911204 0 0 0 2.3267,-0.9641 l 67.804,-67.80401 a 3.2911204,3.2911204 0 0 0 0.9641,-2.3267 v -33.90128 a 3.2911204,3.2911204 0 0 0 -2.031,-3.038 3.2911204,3.2911204 0 0 0 -1.9025,-0.18845 z m -372.2751,30.54683 c -3.6244,0 -6.5816,2.95701 -6.5816,6.58158 0,2.42672 1.3269,4.55347 3.2908,5.69463 v 56.41478 c -1.9639,1.14113 -3.2908,3.26791 -3.2908,5.6946 0,3.62457 2.9572,6.58159 6.5816,6.58159 3.6247,0 6.5816,-2.95702 6.5816,-6.58159 0,-2.38872 -1.3235,-4.53225 -3.2908,-5.68602 v -56.42336 c 1.9639,-1.14116 3.2908,-3.26791 3.2908,-5.69463 0,-3.56419 -2.9457,-6.58158 -6.5816,-6.58158 z m 135.608,0 c -3.6244,0 -6.5816,2.95701 -6.5816,6.58158 0,2.42672 1.327,4.55347 3.2908,5.69463 v 28.20739 a 3.2911204,3.2911204 0 0 0 0.9641,2.3267 l 31.5711,31.57529 -27.5433,27.54752 c -0.5563,-0.14786 -1.1288,-0.2228 -1.7011,-0.2228 -1.6862,0 -3.3762,0.64242 -4.6576,1.9239 -2.5629,2.56296 -2.5633,6.74384 0,9.30678 2.5628,2.56295 6.7482,2.56297 9.311,0 1.6889,-1.68879 2.2673,-4.13958 1.6925,-6.34592 l 29.8828,-29.88278 a 3.2911204,3.2911204 0 0 0 0,-4.65337 l -32.9379,-32.93793 v -26.84478 c 1.9639,-1.14116 3.2908,-3.26791 3.2908,-5.69463 0,-3.56419 -2.9457,-6.58158 -6.5816,-6.58158 z m 101.7018,0 c -3.5644,0 -6.5816,2.94578 -6.5816,6.58158 0,3.62456 2.9569,6.58158 6.5816,6.58158 2.4266,0 4.5565,-1.32691 5.6989,-3.29079 h 26.8405 l 28.9101,28.91013 c -0.5825,2.19572 -0.015,4.63811 1.7011,6.35447 2.5629,2.56296 6.7439,2.56294 9.3068,0 2.5631,-2.56293 2.5672,-6.74382 0,-9.30677 -1.2593,-1.25904 -2.9431,-1.90366 -4.632,-1.91105 v 0 c -0.5748,-0.002 -1.1496,0.0722 -1.7097,0.21851 l -29.8831,-29.88278 a 3.2911204,3.2911204 0 0 0 -2.3267,-0.96411 h -28.2031 c -1.1422,-1.96489 -3.2715,-3.2908 -5.6989,-3.2908 z m 33.902,33.90201 c -2.3896,0 -4.5326,1.32229 -5.6861,3.2908 h -62.1179 a 3.2911204,3.2911204 0 0 0 -2.3267,5.61749 l 67.804,67.80399 a 3.2911204,3.2911204 0 0 0 2.3267,0.96411 h 28.2074 c 1.1411,1.96388 3.2678,3.29079 5.6946,3.29079 3.5641,0 6.5816,-2.94578 6.5816,-6.58158 0,-3.62459 -2.9569,-6.58158 -6.5816,-6.58158 -2.4276,0 -4.5538,1.3259 -5.6946,3.29079 h -26.8405 l -61.2225,-61.22243 h 54.161 c 1.1411,1.96388 3.2678,3.29079 5.6946,3.29079 3.6245,0 6.5816,-2.95702 6.5816,-6.58158 0,-3.62459 -2.9571,-6.58159 -6.5816,-6.58159 z m -237.3098,37.19279 a 3.2911204,3.2911204 0 0 0 -2.3267,0.96412 l -32.9379,32.9379 h -26.8448 c -1.1408,-1.96489 -3.267,-3.29079 -5.6946,-3.29079 -3.5641,0 -6.5816,2.94576 -6.5816,6.58158 0,3.62457 2.9571,6.58158 6.5816,6.58158 2.4268,0 4.5535,-1.32691 5.6946,-3.29079 h 28.2074 a 3.2911204,3.2911204 0 0 0 2.3267,-0.96411 l 31.5753,-31.5753 65.4773,65.47732 a 3.2911204,3.2911204 0 0 0 2.3267,0.96409 h 129.9092 c 1.1411,1.96388 3.2678,3.29079 5.6946,3.29079 3.6244,0 6.5858,-2.95702 6.5858,-6.58158 0,-3.62457 -2.9614,-6.58159 -6.5858,-6.58159 -2.3898,0 -4.5326,1.32229 -5.6861,3.29079 h -128.5551 l -66.8399,-66.83989 a 3.2911204,3.2911204 0 0 0 -2.3267,-0.96412 z m 135.608,30.61123 c -3.6247,0 -6.5858,2.95699 -6.5858,6.58158 0,3.62457 2.9611,6.58158 6.5858,6.58158 2.3876,0 4.5276,-1.32509 5.6818,-3.29079 h 22.5214 c 1.1411,1.96388 3.2679,3.29079 5.6946,3.29079 3.5641,0 6.5858,-2.94578 6.5858,-6.58158 0,-3.62459 -2.9611,-6.58158 -6.5858,-6.58158 -2.4274,0 -4.5537,1.3259 -5.6946,3.29079 h -22.5086 c -1.1408,-1.96489 -3.2672,-3.29079 -5.6946,-3.29079 z" /><rect
       style="display:inline;fill:#f4bb3a;fill-opacity:1;stroke:none;stroke-width:3;stroke-linecap:round;stroke-linejoin:round;paint-order:stroke fill markers;stop-color:#000000"
       id="rect4918"
       width="1600"
       height="50"
       x="0"
       y="675"
       rx="0"
       ry="0" /><text
       xml:space="preserve"
       style="font-style:normal;font-variant:normal;font-weight:normal;font-stretch:normal;font-size:43.6364px;line-height:0%;font-family:FontAwesome;-inkscape-font-specification:FontAwesome;text-align:start;letter-spacing:3.02137px;word-spacing:0px;text-anchor:start;display:inline;fill:#000000;fill-opacity:1;stroke:none;stroke-width:1px;stroke-linecap:butt;stroke-linejoin:miter;stroke-opacity:1"
       x="17.818439"
       y="716.02606"
       id="text4325"><tspan
         sodipodi:role="line"
         id="tspan4327"
         x="17.818439"
         y="716.02606"
         style="font-style:normal;font-variant:normal;font-weight:bold;font-stretch:normal;font-size:49.0971px;line-height:1;font-family:'Liberation Serif';-inkscape-font-specification:'Liberation Serif Bold';fill:#000000;fill-opacity:1;stroke-width:1px">June 27-28 2024</tspan></text><text
       xml:space="preserve"
       style="font-style:normal;font-variant:normal;font-weight:normal;font-stretch:normal;font-size:43.6364px;line-height:0%;font-family:FontAwesome;-inkscape-font-specification:FontAwesome;text-align:start;letter-spacing:3.63636px;word-spacing:0px;text-anchor:start;display:inline;fill:#000000;fill-opacity:1;stroke:none;stroke-width:1px;stroke-linecap:butt;stroke-linejoin:miter;stroke-opacity:1"
       x="1103.9049"
       y="715.44745"
       id="text4329"><tspan
         sodipodi:role="line"
         x="1103.9049"
         y="715.44745"
         id="tspan4333"
         style="font-style:normal;font-variant:normal;font-weight:normal;font-stretch:normal;font-size:45.4545px;line-height:1;font-family:'Liberation Serif';-inkscape-font-specification:'Liberation Serif';stroke-width:1px">southeastdreamin.com</tspan></text><text
       xml:space="preserve"
       style="font-style:normal;font-variant:normal;font-weight:normal;font-stretch:normal;font-size:43.6364px;line-height:0%;font-family:FontAwesome;-inkscape-font-specification:FontAwesome;text-align:start;letter-spacing:3.63636px;word-spacing:0px;text-anchor:start;display:inline;fill:#000000;fill-opacity:1;stroke:none;stroke-width:1px;stroke-linecap:butt;stroke-linejoin:miter;stroke-opacity:1"
       x="670.67883"
       y="712.27362"
       id="text4860"><tspan
         sodipodi:role="line"
         x="670.67883"
         y="712.27362"
         id="tspan4858"
         style="font-style:normal;font-variant:normal;font-weight:normal;font-stretch:normal;font-size:45.4545px;line-height:1;font-family:'Liberation Serif';-inkscape-font-specification:'Liberation Serif';stroke-width:1px">Atlanta, GA</tspan></text><rect
       style="display:inline;opacity:0.4;fill:#ffffff;fill-opacity:1;stroke:none;stroke-width:3;stroke-linecap:round;stroke-linejoin:round;paint-order:stroke fill markers;stop-color:#000000"
       id="rect5869"
       width="1600"
       height="675"
       x="0"
       y="0" /></g><g
     inkscape:groupmode="layer"
     id="layer2"
     inkscape:label="ConferenceInfo"
     style="display:inline"><circle
       r="150"
       cy="337.50064"
       cx="249.66365"
       id="circle9899"
       style="color:#000000;clip-rule:nonzero;display:inline;overflow:visible;visibility:visible;isolation:auto;mix-blend-mode:normal;color-interpolation:sRGB;color-interpolation-filters:linearRGB;solid-color:#000000;solid-opacity:1;fill:#cccccc;fill-opacity:1;fill-rule:nonzero;stroke:none;stroke-width:1;marker:none;color-rendering:auto;image-rendering:auto;shape-rendering:auto;text-rendering:auto;enable-background:accumulate" /><path
       style="color:#000000;fill:#5498bc;-inkscape-stroke:none"
       d="m 249.66406,182.5 c -85.54482,0 -154.999998,69.45518 -154.999998,155 10e-7,85.54483 69.455178,155 154.999998,155 85.54483,0 155,-69.45517 155,-155 0,-85.54482 -69.45517,-155 -155,-155 z m 0,10 c 80.14043,0 145,64.85957 145,145 0,80.14044 -64.85957,145 -145,145 -80.14043,0 -145,-64.85956 -145,-145 0,-80.14043 64.85957,-145 145,-145 z"
       id="path4396" /><flowRoot
       xml:space="preserve"
       id="flowRoot936"
       style="font-style:normal;font-variant:normal;font-weight:500;font-stretch:normal;font-size:31.1667px;line-height:100%;font-family:BorisBlackBloxx;-inkscape-font-specification:'BorisBlackBloxx, Medium';font-variant-ligatures:normal;font-variant-caps:normal;font-variant-numeric:normal;font-variant-east-asian:normal;text-align:start;letter-spacing:1px;word-spacing:0px;writing-mode:lr-tb;text-anchor:start;fill:#f4bb3a;fill-opacity:1;stroke:#454f57;stroke-width:0.825;stroke-linecap:butt;stroke-linejoin:miter;stroke-opacity:1"
       transform="matrix(3.6363636,0,0,3.6363636,-2,166.54735)"><flowRegion
         id="flowRegion938"
         style="font-style:normal;font-variant:normal;font-weight:500;font-stretch:normal;font-size:31.1667px;font-family:BorisBlackBloxx;-inkscape-font-specification:'BorisBlackBloxx, Medium';font-variant-ligatures:normal;font-variant-caps:normal;font-variant-numeric:normal;font-variant-east-asian:normal;text-align:start;writing-mode:lr-tb;text-anchor:start;fill:#f4bb3a;fill-opacity:1;stroke:#454f57;stroke-width:0.825;stroke-opacity:1"><rect
           id="rect940"
           width="314.28571"
           height="170.70984"
           x="125.71429"
           y="1.7857143"
           style="font-style:normal;font-variant:normal;font-weight:500;font-stretch:normal;font-size:31.1667px;font-family:BorisBlackBloxx;-inkscape-font-specification:'BorisBlackBloxx, Medium';font-variant-ligatures:normal;font-variant-caps:normal;font-variant-numeric:normal;font-variant-east-asian:normal;text-align:start;writing-mode:lr-tb;text-anchor:start;fill:#f4bb3a;fill-opacity:1;stroke:#454f57;stroke-width:0.825;stroke-opacity:1" /></flowRegion><flowPara
         style="font-style:normal;font-variant:normal;font-weight:500;font-stretch:normal;font-size:31.1667px;font-family:BorisBlackBloxx;-inkscape-font-specification:'BorisBlackBloxx, Medium';font-variant-ligatures:normal;font-variant-caps:normal;font-variant-numeric:normal;font-variant-east-asian:normal;stroke-width:0.825"
         id="flowPara9459">Mastering Record Visibility in Salesforce</flowPara></flowRoot></g></svg>
