<?xml version="1.0" encoding="UTF-8" standalone="no"?>
<svg
   width="1920"
   height="1080"
   viewBox="0 0 508.00001 285.75001"
   version="1.1"
   id="svg8"
   inkscape:version="1.2.2 (b0a8486541, 2022-12-01)"
   sodipodi:docname="slideDeck_solidGray.svg"
   inkscape:export-filename="slideDeck_solidGray.png"
   inkscape:export-xdpi="300"
   inkscape:export-ydpi="300"
   xmlns:inkscape="http://www.inkscape.org/namespaces/inkscape"
   xmlns:sodipodi="http://sodipodi.sourceforge.net/DTD/sodipodi-0.dtd"
   xmlns="http://www.w3.org/2000/svg"
   xmlns:svg="http://www.w3.org/2000/svg"
   xmlns:rdf="http://www.w3.org/1999/02/22-rdf-syntax-ns#"
   xmlns:cc="http://creativecommons.org/ns#"
   xmlns:dc="http://purl.org/dc/elements/1.1/">
  <defs
     id="defs2" />
  <sodipodi:namedview
     id="base"
     pagecolor="#ffffff"
     bordercolor="#666666"
     borderopacity="1.0"
     inkscape:pageopacity="0.0"
     inkscape:pageshadow="2"
     inkscape:zoom="0.35452151"
     inkscape:cx="661.45493"
     inkscape:cy="826.46607"
     inkscape:document-units="px"
     inkscape:current-layer="layer1"
     inkscape:document-rotation="0"
     showgrid="false"
     units="in"
     showguides="true"
     inkscape:guide-bbox="true"
     inkscape:window-width="2048"
     inkscape:window-height="1113"
     inkscape:window-x="1080"
     inkscape:window-y="0"
     inkscape:window-maximized="1"
     inkscape:showpageshadow="2"
     inkscape:pagecheckerboard="0"
     inkscape:deskcolor="#d1d1d1">
    <sodipodi:guide
       position="7.9375002,285.75001"
       orientation="-1,0"
       id="guide1002"
       inkscape:label=""
       inkscape:locked="false"
       inkscape:color="rgb(0,0,255)" />
    <sodipodi:guide
       position="500.06251,285.75001"
       orientation="-1,0"
       id="guide1004"
       inkscape:label=""
       inkscape:locked="false"
       inkscape:color="rgb(0,0,255)" />
    <sodipodi:guide
       position="0,277.81251"
       orientation="0,1"
       id="guide1008"
       inkscape:label=""
       inkscape:locked="false"
       inkscape:color="rgb(0,0,255)" />
    <sodipodi:guide
       position="0,-298.45001"
       orientation="0,1"
       id="guide1010"
       inkscape:label=""
       inkscape:locked="false"
       inkscape:color="rgb(0,0,255)" />
    <sodipodi:guide
       position="0,7.9375002"
       orientation="0,1"
       id="guide1012"
       inkscape:label=""
       inkscape:locked="false"
       inkscape:color="rgb(0,0,255)" />
    <sodipodi:guide
       position="0,37.041668"
       orientation="0,1"
       id="guide1583"
       inkscape:locked="false"
       inkscape:label=""
       inkscape:color="rgb(0,134,229)" />
  </sodipodi:namedview>
  <metadata
     id="metadata5">
    <rdf:RDF>
      <cc:Work
         rdf:about="">
        <dc:format>image/svg+xml</dc:format>
        <dc:type
           rdf:resource="http://purl.org/dc/dcmitype/StillImage" />
      </cc:Work>
    </rdf:RDF>
  </metadata>
  <g
     inkscape:label="Layer 1"
     inkscape:groupmode="layer"
     id="layer1">
    <rect
       style="fill:#b3b3b3;fill-opacity:1;stroke-width:0.0352779;paint-order:stroke markers fill;stop-color:#000000"
       id="rect1580"
       width="508"
       height="285.75"
       x="-6.7816841e-06"
       y="1.2207031e-05" />
    <rect
       style="opacity:0.65;fill:#ffffff;stroke:none;stroke-width:0.75;paint-order:stroke markers fill;stop-color:#000000"
       id="rect1759"
       width="492.125"
       height="240.77084"
       x="7.9375"
       y="7.9374981" />
    <path
       d="m 12.594291,262.27224 c -0.01334,-0.15393 -0.02348,-0.30889 -0.02348,-0.4665 0,-2.84992 2.310235,-5.1599 5.160228,-5.1599 2.300118,0 4.246932,1.50573 4.912813,3.58482 0.655137,-0.40108 1.423072,-0.63637 2.247687,-0.63637 2.070835,0 3.799109,1.45874 4.218632,3.40411 1.795055,0.80762 3.047208,2.57879 3.047208,4.67472 0,2.84999 -2.310299,5.13022 -5.159731,5.13022 -0.110072,0 1.779983,0 0.0084,0 l -3.481401,5.00917 0.392024,-5.00917 c -3.529743,0 -10.469979,0 -10.661285,0 -2.937113,0 -5.3179045,-2.35102 -5.3179045,-5.28784 0,-2.7129 2.0323706,-4.91714 4.6567935,-5.24326"
       style="fill:#6bb3e4;fill-opacity:1;fill-rule:nonzero;stroke:none;stroke-width:0.0352779"
       id="path939" />
    <path
       d="m 36.877946,264.86401 c 0.439083,0 0.778437,-0.12202 1.018382,-0.36589 0.239704,-0.24395 0.359796,-0.57321 0.359796,-0.98784 0,-0.2195 -0.03664,-0.41471 -0.10975,-0.58547 -0.07319,-0.17076 -0.168916,-0.325 -0.286603,-0.46337 -0.118008,-0.13822 -0.254215,-0.26416 -0.408539,-0.37808 -0.154565,-0.11376 -0.313139,-0.22752 -0.475721,-0.34152 -0.187113,-0.12995 -0.382164,-0.26824 -0.585311,-0.41455 -0.203388,-0.14647 -0.388417,-0.31715 -0.554927,-0.51228 -0.166751,-0.19513 -0.303037,-0.42273 -0.408539,-0.68303 -0.105742,-0.26007 -0.158574,-0.56487 -0.158574,-0.91465 0,-0.34152 0.05892,-0.65033 0.176772,-0.92683 0.117768,-0.27634 0.28059,-0.51219 0.487826,-0.7074 0.207396,-0.19505 0.455278,-0.34545 0.744045,-0.45127 0.288447,-0.10551 0.599421,-0.1585 0.932922,-0.1585 0.325084,0 0.625956,0.0408 0.902458,0.12202 0.276341,0.0813 0.508028,0.17894 0.695142,0.2927 l -0.341438,0.86582 c -0.170759,-0.11368 -0.355789,-0.20115 -0.554927,-0.26216 -0.199299,-0.061 -0.408539,-0.0915 -0.628041,-0.0915 -0.398438,0 -0.717669,0.10791 -0.957374,0.32324 -0.239944,0.2155 -0.359796,0.53056 -0.359796,0.94519 0,0.22768 0.03848,0.42682 0.115843,0.59758 0.0772,0.17076 0.178776,0.32532 0.304962,0.46345 0.125945,0.13837 0.272252,0.26432 0.439003,0.37808 0.16659,0.11392 0.343442,0.23176 0.530556,0.35362 0.186953,0.12194 0.377995,0.25614 0.573125,0.40253 0.195211,0.1463 0.372063,0.31514 0.530556,0.5061 0.158573,0.19112 0.288527,0.41463 0.390261,0.67069 0.101573,0.25622 0.15248,0.55918 0.15248,0.90863 0,0.31707 -0.04882,0.61794 -0.146307,0.90246 -0.09765,0.28476 -0.250126,0.53473 -0.457442,0.75006 -0.207236,0.21549 -0.467624,0.38625 -0.780522,0.51219 -0.313058,0.12595 -0.681032,0.18912 -1.103681,0.18912 -0.390261,0 -0.731699,-0.0448 -1.024475,-0.1342 -0.292695,-0.0894 -0.552922,-0.20732 -0.780521,-0.35362 l 0.341518,-0.87817 c 0.211244,0.13019 0.428742,0.23385 0.652412,0.31097 0.22351,0.0774 0.481733,0.11593 0.774429,0.11593"
       style="fill:#fbc136;fill-opacity:1;fill-rule:nonzero;stroke:none;stroke-width:0.0352779"
       id="path941" />
    <path
       d="m 46.792958,261.4004 c 0,-0.51219 -0.03255,-0.97966 -0.09756,-1.40255 -0.06518,-0.42264 -0.170679,-0.78661 -0.317147,-1.09149 -0.146308,-0.30488 -0.335265,-0.54266 -0.567033,-0.71342 -0.231687,-0.17076 -0.514361,-0.25614 -0.847622,-0.25614 -0.333421,0 -0.615856,0.0854 -0.847543,0.25614 -0.231767,0.17076 -0.420725,0.40854 -0.567193,0.71342 -0.146307,0.30488 -0.254134,0.66885 -0.323159,1.09149 -0.06911,0.42289 -0.103658,0.89036 -0.103658,1.40255 0,0.5122 0.03455,0.97982 0.103658,1.40255 0.06903,0.42281 0.176852,0.78469 0.323159,1.08541 0.146468,0.30087 0.335426,0.53472 0.567193,0.70123 0.231687,0.16675 0.514122,0.24997 0.847543,0.24997 0.333261,0 0.615935,-0.0832 0.847622,-0.24997 0.231768,-0.16651 0.420725,-0.40036 0.567033,-0.70123 0.146468,-0.30072 0.25197,-0.6626 0.317147,-1.08541 0.06502,-0.42273 0.09756,-0.89035 0.09756,-1.40255 z m 1.170782,0 c 0,0.65851 -0.05908,1.25825 -0.176771,1.79883 -0.118009,0.54081 -0.300954,1.00427 -0.548835,1.39036 -0.248122,0.38625 -0.56102,0.68504 -0.939095,0.89637 -0.378075,0.21132 -0.823171,0.31714 -1.335448,0.31714 -0.512198,0 -0.957374,-0.10582 -1.335369,-0.31714 -0.378075,-0.21133 -0.691133,-0.51012 -0.939095,-0.89637 -0.248121,-0.38609 -0.43299,-0.84955 -0.554927,-1.39036 -0.122016,-0.54058 -0.182945,-1.14032 -0.182945,-1.79883 0,-0.65858 0.06093,-1.26017 0.182945,-1.80499 0.121937,-0.54459 0.306806,-1.01013 0.554927,-1.39638 0.247962,-0.38609 0.56102,-0.68696 0.939095,-0.90254 0.377995,-0.21525 0.823171,-0.32316 1.335369,-0.32316 0.512277,0 0.957373,0.10791 1.335448,0.32316 0.378075,0.21558 0.690973,0.51645 0.939095,0.90254 0.247881,0.38625 0.430826,0.85179 0.548835,1.39638 0.117687,0.54482 0.176771,1.14641 0.176771,1.80499"
       style="fill:#fbc136;fill-opacity:1;fill-rule:nonzero;stroke:none;stroke-width:0.0352779"
       id="path943" />
    <path
       d="m 53.42731,265.8031 c -0.788698,0 -1.380182,-0.22359 -1.774451,-0.67085 -0.39451,-0.44702 -0.591484,-1.15435 -0.591484,-2.12198 v -5.84181 h 1.097588 v 5.74424 c 0,0.6424 0.0934,1.12405 0.28051,1.44512 0.186953,0.32132 0.524463,0.48174 1.012289,0.48174 0.50402,0 0.847542,-0.16467 1.030487,-0.49392 0.183025,-0.32933 0.274417,-0.80682 0.274417,-1.43294 v -5.74424 h 1.097669 v 5.84181 c 0,0.9512 -0.203388,1.65452 -0.609843,2.1098 -0.406615,0.45543 -1.012209,0.68303 -1.817182,0.68303"
       style="fill:#fbc136;fill-opacity:1;fill-rule:nonzero;stroke:none;stroke-width:0.0352779"
       id="path945" />
    <path
       d="m 63.29358,257.16846 v 0.9391 h -1.87811 v 7.51252 h -1.097668 v -7.51252 h -1.87803 v -0.9391 h 4.853808"
       style="fill:#fbc136;fill-opacity:1;fill-rule:nonzero;stroke:none;stroke-width:0.0352779"
       id="path947" />
    <path
       d="m 69.830448,257.16846 h 1.097668 v 8.45162 H 69.830448 V 261.6931 H 67.04988 v 3.92698 h -1.097588 v -8.45162 h 1.097588 v 3.57336 h 2.780568 v -3.57336"
       style="fill:#fbc136;fill-opacity:1;fill-rule:nonzero;stroke:none;stroke-width:0.0352779"
       id="path949" />
    <path
       d="m 74.440222,265.62008 v -8.45162 h 3.792938 v 0.9391 h -2.695269 v 2.62215 h 2.43913 v 0.91465 h -2.43913 v 3.03662 h 2.890318 v 0.9391 h -3.987987"
       style="fill:#fbc136;fill-opacity:1;fill-rule:nonzero;stroke:none;stroke-width:0.0352779"
       id="path951" />
    <path
       d="m 83.617443,258.41244 c -0.197776,0.67718 -0.390662,1.35677 -0.578176,2.03901 -0.187675,0.68215 -0.367173,1.38074 -0.538492,2.09528 h 2.213775 c -0.162262,-0.7151 -0.336628,-1.41409 -0.52294,-2.09689 -0.186391,-0.68279 -0.377915,-1.36182 -0.574167,-2.0374 z m 0.597175,-1.24398 c 0.19497,0.6088 0.387776,1.22434 0.578737,1.84637 0.190963,0.62194 0.377755,1.2746 0.56046,1.95747 0.182704,0.68304 0.365488,1.4068 0.548192,2.17113 0.182785,0.76433 0.366451,1.58982 0.550919,2.47665 h -1.097589 c -0.06325,-0.36621 -0.129071,-0.72809 -0.197214,-1.08581 -0.06822,-0.35747 -0.138532,-0.7151 -0.210603,-1.07273 h -2.666488 c -0.08153,0.35763 -0.155045,0.71526 -0.220223,1.0729 -0.06518,0.35771 -0.129793,0.71959 -0.193447,1.08564 h -1.060951 c 0.179418,-0.88587 0.362923,-1.7108 0.550678,-2.47497 0.187514,-0.76408 0.373104,-1.48745 0.556771,-2.17024 0.183506,-0.6828 0.37118,-1.33505 0.562863,-1.957 0.191764,-0.62178 0.385933,-1.23828 0.582586,-1.84941 h 1.155309"
       style="fill:#fbc136;fill-opacity:1;fill-rule:nonzero;stroke:none;stroke-width:0.0352779"
       id="path953" />
    <path
       d="m 90.355694,264.86401 c 0.438522,0 0.778437,-0.12202 1.018141,-0.36589 0.239705,-0.24395 0.359957,-0.57321 0.359957,-0.98784 0,-0.2195 -0.03688,-0.41471 -0.109831,-0.58547 -0.07375,-0.17076 -0.169156,-0.325 -0.287003,-0.46337 -0.117849,-0.13822 -0.254135,-0.26416 -0.408059,-0.37808 -0.154725,-0.11376 -0.313459,-0.22752 -0.476201,-0.34152 -0.186793,-0.12995 -0.381603,-0.26824 -0.585231,-0.41455 -0.203628,-0.14647 -0.388016,-0.31715 -0.554766,-0.51228 -0.166752,-0.19513 -0.303038,-0.42273 -0.40886,-0.68303 -0.105824,-0.26007 -0.157933,-0.56487 -0.157933,-0.91465 0,-0.34152 0.05852,-0.65033 0.176371,-0.92683 0.117848,-0.27634 0.28059,-0.51219 0.488227,-0.7074 0.206835,-0.19505 0.454556,-0.34545 0.743965,-0.45127 0.287805,-0.10551 0.598859,-0.1585 0.93236,-0.1585 0.325485,0 0.626117,0.0408 0.902699,0.12202 0.276581,0.0813 0.508268,0.17894 0.695062,0.2927 l -0.341519,0.86582 c -0.170759,-0.11368 -0.355948,-0.20115 -0.554766,-0.26216 -0.19962,-0.061 -0.40886,-0.0915 -0.62772,-0.0915 -0.398439,0 -0.718311,0.10791 -0.958016,0.32324 -0.239704,0.2155 -0.359154,0.53056 -0.359154,0.94519 0,0.22768 0.03848,0.42682 0.115442,0.59758 0.07696,0.17076 0.178777,0.32532 0.305443,0.46345 0.125864,0.13837 0.271771,0.26432 0.438522,0.37808 0.16675,0.11392 0.343923,0.23176 0.530716,0.35362 0.186793,0.12194 0.377594,0.25614 0.573205,0.40253 0.194811,0.1463 0.371983,0.31514 0.530716,0.5061 0.157933,0.19112 0.288607,0.41463 0.38962,0.67069 0.101814,0.25622 0.153122,0.55918 0.153122,0.90863 0,0.31707 -0.0489,0.61794 -0.146708,0.90246 -0.09781,0.28476 -0.250127,0.53473 -0.456961,0.75006 -0.207637,0.21549 -0.468185,0.38625 -0.780843,0.51219 -0.313459,0.12595 -0.681432,0.18912 -1.103921,0.18912 -0.390421,0 -0.73194,-0.0448 -1.024555,-0.1342 -0.292616,-0.0894 -0.552362,-0.20732 -0.78004,-0.35362 l 0.341517,-0.87817 c 0.210844,0.13019 0.428902,0.23385 0.652573,0.31097 0.222869,0.0774 0.481011,0.11593 0.774429,0.11593"
       style="fill:#fbc136;fill-opacity:1;fill-rule:nonzero;stroke:none;stroke-width:0.0352779"
       id="path955" />
    <path
       d="m 99.648037,257.16846 v 0.9391 h -1.877549 v 7.51252 H 96.67298 v -7.51252 h -1.878351 v -0.9391 h 4.853408"
       style="fill:#fbc136;fill-opacity:1;fill-rule:nonzero;stroke:none;stroke-width:0.0352779"
       id="path957" />
    <path
       d="m 37.682919,275.93327 c 0.08939,0.008 0.193046,0.0144 0.310974,0.0183 0.117768,0.004 0.257982,0.006 0.420725,0.006 0.95128,0 1.656604,-0.23979 2.11597,-0.71958 0.459286,-0.47957 0.689129,-1.14218 0.689129,-1.98796 0,-0.88609 -0.219582,-1.55678 -0.658585,-2.01222 -0.439083,-0.45528 -1.134306,-0.68296 -2.085506,-0.68296 -0.130194,0 -0.264316,0.002 -0.402446,0.006 -0.138371,0.004 -0.268325,0.0143 -0.390261,0.0305 z m 5.500287,-2.68307 c 0,0.73178 -0.113999,1.37016 -0.341518,1.91474 -0.227759,0.54484 -0.550918,0.9961 -0.969559,1.35382 -0.418801,0.35787 -0.928994,0.62612 -1.530499,0.80488 -0.601825,0.17872 -1.276604,0.26825 -2.024497,0.26825 -0.341519,0 -0.740037,-0.0143 -1.195234,-0.0426 -0.455438,-0.0285 -0.902458,-0.0873 -1.341541,-0.17685 v -8.23203 c 0.439083,-0.0812 0.896445,-0.13613 1.372005,-0.16467 0.47564,-0.0285 0.88426,-0.0426 1.225698,-0.0426 0.723602,0 1.380022,0.0813 1.969662,0.24387 0.58932,0.16274 1.095504,0.4188 1.518313,0.76833 0.422649,0.34962 0.747893,0.79688 0.975652,1.34146 0.227519,0.54483 0.341518,1.19941 0.341518,1.96349"
       style="fill:#fbc136;fill-opacity:1;fill-rule:nonzero;stroke:none;stroke-width:0.0352779"
       id="path959" />
    <path
       d="m 48.573663,270.55502 c -0.138291,0 -0.262151,0.004 -0.371903,0.0122 -0.10983,0.008 -0.213488,0.0164 -0.311054,0.0244 v 2.29283 h 0.536569 c 0.715425,0 1.227541,-0.0894 1.536671,-0.26833 0.30889,-0.17877 0.463456,-0.48358 0.463456,-0.91464 0,-0.41472 -0.15665,-0.70933 -0.469548,-0.88418 -0.313058,-0.17477 -0.774349,-0.26223 -1.384191,-0.26223 z m -0.109751,-1.62197 c 1.268347,0 2.23975,0.22551 2.91469,0.67678 0.674779,0.45127 1.012289,1.1525 1.012289,2.10378 0,0.59357 -0.136207,1.0753 -0.408539,1.4452 -0.272494,0.37006 -0.664598,0.66067 -1.176875,0.8719 0.170759,0.21157 0.349454,0.45346 0.536568,0.72572 0.186953,0.27257 0.371982,0.55698 0.554927,0.8537 0.182945,0.29687 0.359796,0.60574 0.530475,0.92682 0.17076,0.32133 0.329333,0.63631 0.475721,0.94521 h -2.126793 c -0.155206,-0.27627 -0.312417,-0.5568 -0.471471,-0.84155 -0.159135,-0.28451 -0.322278,-0.56093 -0.48959,-0.82925 -0.167231,-0.26825 -0.332699,-0.52232 -0.495763,-0.76216 -0.163303,-0.23979 -0.326606,-0.45737 -0.489829,-0.65259 h -0.939016 v 3.08555 h -1.902561 v -8.32969 c 0.414713,-0.0811 0.843454,-0.13813 1.286706,-0.17068 0.443012,-0.0324 0.839366,-0.0487 1.189061,-0.0487"
       style="fill:#fbc136;fill-opacity:1;fill-rule:nonzero;stroke:none;stroke-width:0.0352779"
       id="path961" />
    <path
       d="m 55.342218,277.48216 v -8.45163 h 5.707603 v 1.5976 h -3.805122 v 1.65869 h 3.378224 v 1.56104 h -3.378224 v 2.03668 h 4.085632 v 1.59762 h -5.988113"
       style="fill:#fbc136;fill-opacity:1;fill-rule:nonzero;stroke:none;stroke-width:0.0352779"
       id="path963" />
    <path
       d="m 67.336482,270.94528 c -0.04249,0.12266 -0.104619,0.28981 -0.186311,0.50097 -0.08177,0.21133 -0.174767,0.45544 -0.279148,0.73234 -0.104458,0.27682 -0.221265,0.58178 -0.350336,0.91465 -0.128992,0.33286 -0.260067,0.682 -0.393307,1.04733 h 2.416923 c -0.129472,-0.36646 -0.254616,-0.71673 -0.375831,-1.05062 -0.121215,-0.33382 -0.236497,-0.63927 -0.345446,-0.91641 -0.10919,-0.27682 -0.204831,-0.52078 -0.287244,-0.73186 -0.08225,-0.21092 -0.148793,-0.37639 -0.1993,-0.4964 z m 2.285768,6.53688 c -0.09412,-0.29368 -0.195131,-0.59535 -0.303358,-0.90481 -0.108228,-0.30943 -0.216134,-0.61777 -0.3234,-0.92457 H 65.69471 c -0.106704,0.3084 -0.213809,0.6172 -0.320915,0.92708 -0.107266,0.30993 -0.207155,0.61078 -0.29959,0.9023 H 63.09853 c 0.318029,-0.91048 0.619623,-1.75194 0.905104,-2.52453 0.2854,-0.77235 0.564627,-1.50003 0.837922,-2.18299 0.273214,-0.68295 0.542341,-1.33128 0.807377,-1.94521 0.265038,-0.61377 0.540417,-1.21351 0.825897,-1.7989 h 1.803393 c 0.277624,0.58539 0.551319,1.18513 0.820926,1.7989 0.269447,0.61393 0.541139,1.26226 0.814834,1.94521 0.273616,0.68296 0.553404,1.41064 0.839205,2.18299 0.285881,0.77259 0.588037,1.61405 0.906707,2.52453 H 69.62225"
       style="fill:#fbc136;fill-opacity:1;fill-rule:nonzero;stroke:none;stroke-width:0.0352779"
       id="path965" />
    <path
       d="m 76.208822,269.03053 c 0.146708,0.26832 0.315704,0.59974 0.507468,0.99401 0.191522,0.39443 0.391222,0.82125 0.599099,1.28045 0.207877,0.45945 0.41375,0.929 0.617619,1.40865 0.203708,0.47981 0.395151,0.93107 0.574729,1.35371 0.179256,-0.42264 0.370859,-0.8739 0.574728,-1.35371 0.203708,-0.47965 0.409501,-0.9492 0.617378,-1.40865 0.207958,-0.4592 0.407578,-0.88602 0.599261,-1.28045 0.191523,-0.39427 0.360759,-0.72569 0.507467,-0.99401 h 1.731802 c 0.08121,0.56094 0.15641,1.18906 0.225675,1.8842 0.06894,0.69522 0.129954,1.41899 0.182945,2.17081 0.05275,0.75224 0.101493,1.50629 0.146307,2.26235 0.04465,0.75615 0.0833,1.46774 0.115844,2.13427 h -1.853738 c -0.02437,-0.8211 -0.057,-1.71539 -0.09757,-2.68311 -0.04072,-0.96738 -0.101734,-1.94303 -0.182944,-2.92686 -0.146949,0.34135 -0.310013,0.71951 -0.48935,1.13414 -0.179497,0.41463 -0.35683,0.82935 -0.532239,1.24397 -0.175329,0.41471 -0.344484,0.81099 -0.507627,1.18906 -0.163063,0.37808 -0.301835,0.70132 -0.415995,0.96963 h -1.329356 c -0.11424,-0.26831 -0.252852,-0.59155 -0.415995,-0.96963 -0.163063,-0.37807 -0.332459,-0.77435 -0.507788,-1.18906 -0.175248,-0.41462 -0.352742,-0.82934 -0.532079,-1.24397 -0.179497,-0.41463 -0.342561,-0.79279 -0.489269,-1.13414 -0.08145,0.98383 -0.142459,1.95948 -0.182945,2.92686 -0.0408,0.96772 -0.07327,1.86201 -0.09756,2.68311 H 73.72095 c 0.03231,-0.66653 0.07095,-1.37812 0.115763,-2.13427 0.04465,-0.75606 0.0934,-1.51011 0.146388,-2.26235 0.05275,-0.75182 0.113759,-1.47559 0.182865,-2.17081 0.0691,-0.69514 0.144303,-1.32326 0.225674,-1.8842 h 1.817182"
       style="fill:#fbc136;fill-opacity:1;fill-rule:nonzero;stroke:none;stroke-width:0.0352779"
       id="path967" />
    <path
       d="m 86.123753,269.03053 h 1.902241 v 8.45163 h -1.902241 v -8.45163"
       style="fill:#fbc136;fill-opacity:1;fill-rule:nonzero;stroke:none;stroke-width:0.0352779"
       id="path969" />
    <path
       d="m 96.867789,277.48216 c -0.544345,-0.96741 -1.133584,-1.9227 -1.767717,-2.86603 -0.634936,-0.94296 -1.309154,-1.83331 -2.025059,-2.67083 v 5.53686 h -1.87835 v -8.45163 h 1.549658 c 0.267763,0.26832 0.564387,0.59758 0.889872,0.98792 0.325484,0.39026 0.656581,0.80698 0.99409,1.24999 0.337511,0.44325 0.672615,0.90245 1.006117,1.37818 0.333501,0.47556 0.646158,0.93293 0.938774,1.37191 v -4.988 h 1.890376 v 8.45163 h -1.597761"
       style="fill:#fbc136;fill-opacity:1;fill-rule:nonzero;stroke:none;stroke-width:0.0352779"
       id="path971" />
    <path
       d="m 103.08807,268.12807 c 0.016,0.11392 0.0281,0.23169 0.0361,0.35371 0.008,0.12193 0.0128,0.21148 0.0128,0.26824 0,0.54483 -0.0978,1.06312 -0.29261,1.55495 -0.19561,0.49208 -0.43532,0.90863 -0.71992,1.25015 l -1.28029,-0.29278 c 0.15393,-0.34945 0.27819,-0.74396 0.37198,-1.18296 0.093,-0.43901 0.1403,-0.85773 0.1403,-1.25617 0,-0.0162 0,-0.0507 0,-0.10373 0,-0.0528 -0.002,-0.11368 -0.006,-0.18287 -0.004,-0.0689 -0.008,-0.14029 -0.012,-0.21341 -0.004,-0.0732 -0.0104,-0.13821 -0.0184,-0.19513 h 1.76852"
       style="fill:#fbc136;fill-opacity:1;fill-rule:nonzero;stroke:none;stroke-width:0.0352779"
       id="path973" />
  </g>
</svg>
