<?xml version="1.0" encoding="UTF-8" standalone="no"?>
<svg
   xmlns:dc="http://purl.org/dc/elements/1.1/"
   xmlns:cc="http://creativecommons.org/ns#"
   xmlns:rdf="http://www.w3.org/1999/02/22-rdf-syntax-ns#"
   xmlns:svg="http://www.w3.org/2000/svg"
   xmlns="http://www.w3.org/2000/svg"
   xmlns:sodipodi="http://sodipodi.sourceforge.net/DTD/sodipodi-0.dtd"
   xmlns:inkscape="http://www.inkscape.org/namespaces/inkscape"
   width="2000"
   height="750"
   viewBox="0 0 2000 750"
   id="svg2"
   version="1.1"
   inkscape:version="1.0.2 (e86c870879, 2021-01-15)"
   sodipodi:docname="WhovaHeader_2022.svg"
   inkscape:export-filename="/home/pcon/devel/community/southeastdreamin/img/skyline_whova_large.png"
   inkscape:export-xdpi="96"
   inkscape:export-ydpi="96">
  <defs
     id="defs4">
    <clipPath
       clipPathUnits="userSpaceOnUse"
       id="clipPath4243">
      <rect
         style="color:#000000;clip-rule:nonzero;display:inline;overflow:visible;visibility:visible;opacity:1;isolation:auto;mix-blend-mode:normal;color-interpolation:sRGB;color-interpolation-filters:linearRGB;solid-color:#000000;solid-opacity:1;fill:#ffffff;fill-opacity:1;fill-rule:nonzero;marker:none;color-rendering:auto;image-rendering:auto;shape-rendering:auto;text-rendering:auto;enable-background:accumulate"
         id="rect4245"
         width="440"
         height="220"
         x="0"
         y="832.36218" />
    </clipPath>
    <clipPath
       clipPathUnits="userSpaceOnUse"
       id="clipPath4392">
      <circle
         style="color:#000000;clip-rule:nonzero;display:inline;overflow:visible;visibility:visible;opacity:1;isolation:auto;mix-blend-mode:normal;color-interpolation:sRGB;color-interpolation-filters:linearRGB;solid-color:#000000;solid-opacity:1;fill:#0d7781;fill-opacity:1;fill-rule:nonzero;marker:none;color-rendering:auto;image-rendering:auto;shape-rendering:auto;text-rendering:auto;enable-background:accumulate"
         id="circle4394"
         cx="82.5"
         cy="48.214287"
         r="50" />
    </clipPath>
    <clipPath
       clipPathUnits="userSpaceOnUse"
       id="clipPath4392-8">
      <circle
         style="color:#000000;clip-rule:nonzero;display:inline;overflow:visible;visibility:visible;opacity:1;isolation:auto;mix-blend-mode:normal;color-interpolation:sRGB;color-interpolation-filters:linearRGB;solid-color:#000000;solid-opacity:1;fill:#0d7781;fill-opacity:1;fill-rule:nonzero;marker:none;color-rendering:auto;image-rendering:auto;shape-rendering:auto;text-rendering:auto;enable-background:accumulate"
         id="circle4394-9"
         cx="82.5"
         cy="48.214287"
         r="50" />
    </clipPath>
  </defs>
  <sodipodi:namedview
     id="base"
     pagecolor="#ffffff"
     bordercolor="#666666"
     borderopacity="1.0"
     inkscape:pageopacity="0.0"
     inkscape:pageshadow="2"
     inkscape:zoom="0.49497475"
     inkscape:cx="755.17037"
     inkscape:cy="327.79556"
     inkscape:document-units="px"
     inkscape:current-layer="layer5"
     showgrid="false"
     units="px"
     borderlayer="true"
     showguides="false"
     inkscape:snap-bbox="true"
     inkscape:object-nodes="true"
     inkscape:window-width="2048"
     inkscape:window-height="1113"
     inkscape:window-x="1080"
     inkscape:window-y="0"
     inkscape:window-maximized="1"
     inkscape:snap-global="true"
     inkscape:bbox-paths="true"
     inkscape:snap-page="true"
     inkscape:document-rotation="0" />
  <metadata
     id="metadata7">
    <rdf:RDF>
      <cc:Work
         rdf:about="">
        <dc:format>image/svg+xml</dc:format>
        <dc:type
           rdf:resource="http://purl.org/dc/dcmitype/StillImage" />
        <dc:title></dc:title>
      </cc:Work>
    </rdf:RDF>
  </metadata>
  <g
     inkscape:groupmode="layer"
     id="layer5"
     inkscape:label="Background"
     style="display:inline">
    <path
       style="color:#000000;clip-rule:nonzero;display:inline;overflow:visible;visibility:visible;opacity:1;isolation:auto;mix-blend-mode:normal;color-interpolation:sRGB;color-interpolation-filters:linearRGB;solid-color:#000000;solid-opacity:1;vector-effect:none;fill:#ffe6d5;fill-opacity:1;fill-rule:nonzero;stroke:none;stroke-width:1;marker:none;color-rendering:auto;image-rendering:auto;shape-rendering:auto;text-rendering:auto;enable-background:accumulate"
       d="M 0,-1.5e-6 H 2000 V 749.99998 L 0,750 Z"
       id="rect1106"
       inkscape:connector-curvature="0"
       sodipodi:nodetypes="ccccc" />
    <path
       style="color:#000000;clip-rule:nonzero;display:inline;overflow:visible;visibility:visible;opacity:1;isolation:auto;mix-blend-mode:normal;color-interpolation:sRGB;color-interpolation-filters:linearRGB;solid-color:#000000;solid-opacity:1;vector-effect:none;fill:#b3b3b3;fill-opacity:1;fill-rule:nonzero;stroke:none;stroke-width:0.944883;stroke-linecap:round;stroke-linejoin:miter;stroke-miterlimit:4;stroke-dasharray:none;stroke-dashoffset:0;stroke-opacity:1;marker:none;color-rendering:auto;image-rendering:auto;shape-rendering:auto;text-rendering:auto;enable-background:accumulate"
       d="m 10.934501,532.87184 -2.0626097,-54.5457 c -2.7359932,-5.72032 -6.0884374,-13.14588 0.9378854,-10.1556 1.7593623,0.74876 4.5278243,0.74342 1.0664543,-3.65731 -3.7258267,-4.73696 1.89303,-5.86802 3.875172,-2.71905 l 2.710119,4.30549 c 1.022997,1.62519 2.912735,1.16532 1.834885,-2.61178 -1.827729,-6.4049 -0.656271,-14.63526 4.355128,-13.10013 l 10.568721,0.0592 c 5.690632,-0.6759 2.979321,10.32216 1.36739,13.69145 -1.215177,2.53998 -1.017458,6.41685 1.972171,2.89939 l 3.502634,-4.12103 c 2.194035,-2.5814 3.594241,-2.12621 1.950729,2.18175 -1.648541,4.32116 -0.267714,3.99915 1.368079,3.37076 7.361962,-2.8281 3.490694,4.55065 0.04309,11.19885 l 0.166709,55.33397 7.890556,0.20878 -0.359227,8.07275 c 13.087891,-1.63065 14.209532,2.22323 8.971146,8.99211 17.60091,-4.85121 33.721175,-2.29917 49.826797,0.32591 l 1.9003,50.26905 15.48097,0.44319 -1.97656,-137.02015 c 42.4647,-6.58956 84.48432,-3.67945 117.94495,-0.86991 l 1.06183,42.75668 3.04482,-0.005 -0.94453,-99.26243 14.14755,-2.6304 101.01154,4.80855 0.42396,61.9721 c 3.40582,-0.10877 3.11662,3.93925 2.24842,8.63871 l 10.17458,-0.4943 1.09025,77.86172 13.45916,-0.42909 0.66865,4.25027 8.23142,-0.27954 -0.46599,4.07991 8.3109,-0.20455 0.44811,13.04177 19.43993,1.51036 -0.62687,10.70187 7.58929,4.45164 0.21123,-43.58895 -2.83907,0.23046 0.5455,-2.12896 -2.71285,-0.71401 -0.26841,-3.01075 9.00691,-0.28195 -0.19092,-7.90378 15.32559,-0.47532 0.44767,6.36373 -2.34204,3.06685 5.16594,-1.40775 1.32509,-96.1617 10.66801,-0.55419 -0.65241,-94.20913 9.58714,-1.9112 2.90422,-98.58951 9.00404,-2.54706 0.30137,-13.28228 26.78023,-10.31159 24.31255,-2.50487 36.79781,9.51 0.0646,172.59484 27.67796,-0.82045 -1.09963,114.99401 20.68709,0.0563 1.08173,6.09439 31.03423,-0.7361 0.58026,17.20189 12.80706,2.8483 -2.31923,63.68918 52.49296,-0.67449 -0.90246,-97.56618 19.03937,0.28354 -2.07309,-306.43019 8.44227,-4.12481 0.75409,-21.76472 20.66141,-6.56116 -0.59451,-35.96518 34.55982,-1.80788 13.78596,3.5065 -0.0144,14.69628 28.26174,-2.74181 16.57545,6.21894 -0.9034,25.73902 15.56676,10.66893 1.40115,23.21252 15.63722,4.54549 -3.67463,232.72796 14.49609,-0.27768 2.40853,116.63688 44.25687,-1.72892 -2.58486,-106.93752 4.84145,-0.44732 -0.70367,-19.73262 23.0004,0.18712 -0.25318,-27.27028 27.44647,-0.48963 28.98661,6.50219 -2.7858,-186.42451 c -0.1059,-7.09148 4.2093,-7.90153 8.7972,-7.88585 l 27.9011,0.0954 -0.2028,-94.35321 c -0.01,-4.84595 4.2393,-5.28252 4.2511,-0.0764 l 0.2132,94.44411 33.122,0.11324 c 5.1934,0.0177 3.7986,3.49652 3.7777,6.12201 l -1.7144,215.15448 11.1424,-0.33391 0.058,-7.95422 24.5867,0.33581 2.7922,-4.59342 16.6787,-0.41782 -9.7656,-10.95519 1.2389,-33.12435 21.5149,0.36367 12.0489,19.65242 12.3876,-6.37041 27.8842,-1.14784 -0.1277,-13.82105 45.1686,0.77018 4.8699,6.0352 -1.07,-158.793 100.802,-5.95123 69.8713,36.40715 -1.615,188.31601 7.3179,-5.40923 19.4335,-0.064 -0.4988,-31.4937 15.4665,-0.56488 0.5802,-9.67251 31.2544,-0.53738 0.2854,-23.3584 28.8625,-0.6632 35.5531,14.38329 0.7861,7.40842 29.9265,12.32294 0.2713,54.48915 50.4325,0.20863 0.7078,13.96772 18.2467,4.26725 -1.1658,76.94753 15.2502,-0.82758 1.1697,9.36822 19.5432,-0.95341 0.9261,-4.41187 13.6353,0.11914 -0.9205,-81.06606 5.4044,0.0199 -1.9151,-376.85041 18.9724,-1.84165 -1.7733,-17.600581 18.5511,-1.2435 -0.2194,-33.929584 16.8102,0.173567 0.4871,-23.637882 12.9737,0.41395 -0.6004,-30.27232 6.7234,-7.40629 21.219,0.18377 4.9149,7.75851 -0.825,27.81796 12.3496,-1.04443 2.551,18.266934 10.6687,0.138895 -1.4148,9.201143 5.5834,0.931692 -0.097,20.994221 10.2719,-1.236515 2.5499,13.694414 13.1317,5.861276 -1.2428,20.44969 11.5364,3.17594 -1.4184,215.63955 L 2000,336.35995 V 1095.6994 H 0 V 532.80128 Z"
       id="rect1146"
       inkscape:connector-curvature="0"
       sodipodi:nodetypes="ccsssssccsssssccccccccccccccccccccccccccccccccccccccccccccccccccccccccccccccccccccccccccccccccccccccsscsscsscccccccccccccccccccccccccccccccccccccccccccccccccccccccccccccccccccccccc" />
    <path
       style="color:#000000;clip-rule:nonzero;display:inline;overflow:visible;visibility:visible;opacity:0.6;isolation:auto;mix-blend-mode:normal;color-interpolation:sRGB;color-interpolation-filters:linearRGB;solid-color:#000000;solid-opacity:1;vector-effect:none;fill:#ffffff;fill-opacity:1;fill-rule:nonzero;stroke:none;stroke-width:1;marker:none;color-rendering:auto;image-rendering:auto;shape-rendering:auto;text-rendering:auto;enable-background:accumulate"
       d="M -4.9999999e-6,3.5e-5 H 2000 V 749.99996 H -4.9999999e-6 Z"
       id="rect1106-3"
       inkscape:connector-curvature="0"
       sodipodi:nodetypes="ccccc" />
  </g>
  <g
     inkscape:groupmode="layer"
     id="layer2"
     inkscape:label="ConferenceInfo"
     style="display:inline" />
  <g
     inkscape:groupmode="layer"
     id="layer3"
     inkscape:label="SpeakerInfo"
     style="display:inline" />
</svg>
